<?xml version="1.0" standalone="no"?>
<!DOCTYPE svg PUBLIC "-//W3C//DTD SVG 1.1//EN" "http://www.w3.org/Graphics/SVG/1.1/DTD/svg11.dtd" >
<svg xmlns="http://www.w3.org/2000/svg" xmlns:xlink="http://www.w3.org/1999/xlink" version="1.1">
<metadata>
Created by FontForge 20230101 at Sun Jul 25 22:06:53 1999
 By Glenn Lewis
http://fonts.tom7.com / - 32760 NO Copyright (c) 1999 Tom Murphy 7 - Use for anything, and distribute freely... But don't sell (on CD, for instance!). ImightbeTM@aol.com - 339 Still Hill Rd - Hamden CT 06518.1830 - I never asked for the truth, but you li
</metadata>
<defs>
<font id="32768NO" horiz-adv-x="524" >
  <font-face 
    font-family="32768 NO"
    font-weight="400"
    font-stretch="normal"
    units-per-em="1000"
    panose-1="0 0 4 0 0 0 0 0 0 0"
    ascent="800"
    descent="-200"
    x-height="745"
    cap-height="744"
    bbox="6 -68 1176 800"
    underline-thickness="20"
    underline-position="-143"
    unicode-range="U+0020-2026"
  />
<missing-glyph horiz-adv-x="500" 
d="M63 0v800h375v-800h-375zM125 63h250v675h-250v-675z" />
    <glyph glyph-name=".notdef" horiz-adv-x="500" 
d="M63 0v800h375v-800h-375zM125 63h250v675h-250v-675z" />
    <glyph glyph-name=".null" horiz-adv-x="0" 
 />
    <glyph glyph-name="nonmarkingreturn" horiz-adv-x="850" 
 />
    <glyph glyph-name="space" unicode=" " horiz-adv-x="850" 
 />
    <glyph glyph-name="exclam" unicode="!" horiz-adv-x="198" 
d="M167 708q0 -26 -25 -118q-12 -45 -24 -89q-3 -31 -11 -94q-7 -45 -6 -122q1 -89 -1 -121q-1 -10 -2 -17q-2 -10 -31 -10q-21 0 -22 7q-6 27 -6 86q0 24 1 80t1 86q0 29 -1 53q0 7 -7 67q-7 51 -7 105q0 161 78 161q23 0 43 -25t20 -49zM109 56q0 -49 -40 -49
q-12 0 -21 14q-8 11 -8 21q0 20 9 39q11 23 29 23q31 0 31 -48zM105 630q-1 15 -9.5 25.5t-20.5 7.5q-14 -4 -12 -38q3 -43 14 -100q1 2 19 50q11 30 9 55z" />
    <glyph glyph-name="quotedbl" unicode="&#x22;" horiz-adv-x="460" 
d="M393 579q-24 0 -24 15q0 6 5.5 21.5t6.5 23.5q-8 0 -25.5 -4t-21.5 -4q-27 0 -52 15q-28 17 -28 42q0 29 26.5 53t56.5 24q37 0 70.5 -32t33.5 -72q0 -23 -13 -50q-16 -32 -35 -32zM358 692q0 9 -8 16.5t-16 7.5q-24 0 -24 -21q0 -18 25 -18q23 0 23 15zM163 576
q-24 0 -24 15q0 6 5.5 21.5t6.5 23.5q-8 0 -25.5 -4t-21.5 -4q-27 0 -52 15q-28 17 -28 42q0 29 26.5 53t56.5 24q37 0 70.5 -32t33.5 -72q0 -23 -13 -50q-16 -32 -35 -32zM128 689q0 9 -8 16.5t-16 7.5q-24 0 -24 -21q0 -18 25 -18q23 0 23 15z" />
    <glyph glyph-name="numbersign" unicode="#" horiz-adv-x="587" 
d="M563 228q0 -24 -18 -53q-3 -4 -28 -5q-18 0 -49 1q-34 1 -31 1q-19 0 -26 -64q-9 -74 -11 -78q-4 -7 -19 -7q-42 0 -53 21l12 152q-14 2 -71 14q-52 12 -66 12q-7 0 -8 -2q-3 -5 -6 -59t-10.5 -61.5t-29.5 -7.5q-18 0 -36.5 4.5t-18.5 8.5q-3 39 5 96q-21 20 -52 23
q-27 2 -30 7t-3 16q0 40 14 51q9 8 26 9q12 2 29 0q21 -2 22 -2q1 41 1 84q-11 -2 -63 -2q-23 0 -23 54q0 26 9 33q5 4 24 5.5t32 9.5q0 7 -4.5 55.5t-4.5 82.5q0 153 86 153q43 0 66 -65q15 -43 15 -80q0 -46 -19 -151q38 -6 117 -22q19 43 24 106q5 72 8 82q9 33 43 33
q18 0 40 -4q19 -3 19 -4q0 -19 -4 -90q-6 -87 -12 -119q31 -11 71 -18q20 -4 26 -15q2 -4 2 -13q0 -14 -5 -33t-7.5 -21.5t-7.5 -2.5q-8 0 -36 4.5t-38 4.5q-7 0 -9 -2q-5 -5 -11 -41q-7 -43 -12 -57q32 -2 64 -5q58 -6 62.5 -16.5t4.5 -22.5zM181 597q-2 18 -5 36.5
t-18 18.5q-14 0 -18.5 -17.5t-7.5 -34.5q-2 -9 -2 -18q0 -17 8 -38t15 -40q3 10 20 46q11 25 8 47zM344 360q-39 7 -147 19q7 -19 1 -96q35 6 141 1q0 33 5 76z" />
    <glyph glyph-name="dollar" unicode="$" horiz-adv-x="456" 
d="M430 622q0 -31 -34 -55q-29 -20 -50 -20q-2 0 -95 32v-2q-10 -41 -7 -181q20 -6 55 -23q23 -14 47 -28q35 -25 39 -54q5 -29 -10 -61q-4 -10 -29 -42q-7 -9 -25 -28q-17 -15 -67 -31q1 -49 0 -56q-2 -28 -14 -32q-19 -6 -22 68v9q-16 -4 -20 -4t-31.5 -3.5t-31.5 -3.5
q-25 0 -57 19q-36 22 -36 48q0 49 33 64q16 7 60 7q-5 0 74 -25q-1 22 -3 124v13q-45 21 -70 43q-16 15 -28 43q-11 25 -11 44q0 63 40 107q13 19 45 55q-6 23 -6 45q0 34 14 61q17 34 49 34q17 0 29.5 -20t12.5 -34q0 -22 -3 -45q25 4 54 4q4 0 14 -4t14 -5q70 -16 70 -63z
M349 620q2 12 -28 25q-7 2 -15 2q-16 0 -40 -13l-4 -12q8 -4 26.5 -6t22.5 -5q8 -6 17 -6q18 0 21 15zM246 683q3 40 -11 40q-11 0 -14 -13.5t-5 -26.5q-1 -6 -1 -13q15 8 31 13zM205 420v164q-22 -8 -35 -37q-11 -24 -11 -50q0 -39 46 -77zM334 265q0 18 -8 28
q-2 2 -21.5 17t-58.5 30q1 -39 5 -131q9 -2 14 -2q23 0 46 17t23 41zM215 160l-1 10q-62 23 -71 23q-13 0 -19 -15q-4 -11 12 -21q13 -9 21 -9q13 0 58 12z" />
    <glyph glyph-name="percent" unicode="%" horiz-adv-x="590" 
d="M564 683q0 -57 -55 -122q-27 -32 -122 -118q-86 -78 -124 -129q-46 -63 -144 -218q-11 -16 -28 -31q-20 -17 -32 -17q-16 0 -26.5 15t-10.5 32q0 29 20 52q89 95 129 150q29 40 57 81q24 33 59 98q24 47 48 93l54 122q35 70 76 70q30 0 61 -20q38 -24 38 -58zM489 643
q0 19 -19 19q-9 0 -26.5 -14.5t-23.5 -26.5q-10 -19 -25 -66t-23 -63q30 32 61 64q56 63 56 87zM215 540q0 -33 -24 -57t-50 -24q-27 0 -47.5 22t-20.5 47q0 28 24 54.5t51 26.5q23 0 45 -23.5t22 -45.5zM167 537q-4 15 -22 15q-22 0 -19 -23q2 -15 16 -17q10 -2 18.5 6.5
t6.5 18.5zM481 173q0 -33 -24 -57t-50 -24q-27 0 -47.5 22t-20.5 47q0 28 24 54.5t51 26.5q23 0 45 -23.5t22 -45.5zM433 170q-4 15 -22 15q-22 0 -19 -23q2 -15 16 -17q10 -2 18.5 6.5t6.5 18.5z" />
    <glyph glyph-name="ampersand" unicode="&#x26;" horiz-adv-x="533" 
d="M500 109q0 -31 -21.5 -54t-50.5 -23q-57 0 -101 37q-51 41 -70 121q-3 -2 -69 -44q-36 -22 -68 -22q-49 0 -79 42q-26 36 -26 78q0 32 34 102q9 20 29 57q6 9 26 31q16 16 16 22t-11 26q-18 31 -21 37q-20 40 -20 101q0 51 65 103t114 52q46 0 74 -65q22 -49 22 -86
q0 -43 -57 -111q-13 -16 -65 -68q46 -86 72 -142q4 2 72 54q44 34 77 43q7 2 13 2q33 0 33 -36q0 -14 -7 -22q-16 -19 -65 -37t-69 -46q5 -13 36 -21q36 -8 47 -18q39 -35 53 -56q17 -25 17 -57zM277 642q0 11 -12 27q-15 19 -31 19q-26 0 -46 -28.5t-20 -59.5
q0 -21 10.5 -52.5t21.5 -43.5q31 4 57 63q20 48 20 75zM408 148q0 27 -32 40q-31 9 -63 18q29 -99 69 -99q8 0 17 14.5t9 26.5zM234 260q2 6 -80 129q-67 -64 -67 -121q0 -18 19.5 -43.5t40.5 -25.5q13 0 47.5 24t39.5 37z" />
    <glyph glyph-name="quotesingle" unicode="'" horiz-adv-x="244" 
d="M163 576q-24 0 -24 15q0 6 5.5 21.5t6.5 23.5q-8 0 -25.5 -4t-21.5 -4q-27 0 -52 15q-28 17 -28 42q0 29 26.5 53t56.5 24q37 0 70.5 -32t33.5 -72q0 -23 -13 -50q-16 -32 -35 -32zM128 689q0 9 -8 16.5t-16 7.5q-24 0 -24 -21q0 -18 25 -18q23 0 23 15z" />
    <glyph glyph-name="parenleft" unicode="(" horiz-adv-x="357" 
d="M332 134q3 -7 0 -18q-1 -8 -3 -15q-3 -33 -27 -43q-11 -4 -55 -8q-27 -2 -70 31q-38 29 -74 73q-46 56 -59 112q-27 108 -27 142q0 81 35 166q40 99 114 162q12 12 24.5 25t27.5 12q36 -4 41 -30q2 -15 -11 -33q-30 -35 -61 -70q-41 -48 -49 -78q-9 -16 -23 -50
q-9 -36 -9 -83q0 -105 22 -149q5 -10 46 -28q35 -15 62 -22.5t54 -31.5q31 -28 42 -64zM256 137q0 15 -49 34q-58 22 -70 33q7 -31 37 -59.5t53 -28.5q29 -1 29 21z" />
    <glyph glyph-name="parenright" unicode=")" horiz-adv-x="357" 
d="M17 689q-2 7 0 18q1 8 3 15q3 33 27 43q11 4 55 8q27 2 70 -31q39 -29 74 -73q46 -58 60 -112q26 -108 26 -142q0 -81 -34 -165q-41 -100 -115 -163q-12 -12 -24.5 -25t-27.5 -12q-36 3 -40 30q-3 15 10 33q31 35 61 70q41 48 49 78q9 16 23 50q9 36 9 83q0 105 -22 149
q-5 10 -46 28q-35 15 -61.5 22.5t-54.5 31.5q-31 28 -42 64zM93 686q0 -15 49 -34q58 -22 71 -33q-8 31 -38 59.5t-53 28.5q-29 1 -29 -21z" />
    <glyph glyph-name="asterisk" unicode="*" horiz-adv-x="391" 
d="M369 579q0 -10 -61 -63q-1 -4 -1 -49q0 -29 -14 -47q-11 -13 -36 -13q-19 0 -37.5 10.5l-18.5 10.5q-4 0 -24 -15q-23 -17 -33 -22q-20 -9 -67 -9q-23 0 -28 2q-12 5 -12 29q0 5 29.5 64t29.5 65q0 2 -17 36.5t-17 39.5q0 23 46 33q25 5 51 9q10 16 34 43q18 19 54 19
q23 0 44 -34.5t16 -53.5q62 -6 62 -55zM248 643q4 29 -11 29q-7 0 -25 -19q14 -3 36 -10zM261 558q0 6 -2 19t-2 16q-12 0 -34 2.5t-26 2.5q-15 0 -29 -17.5t-14 -34.5q0 -6 22.5 -31t26.5 -25q19 0 40 29q18 27 18 39zM158 462q-17 25 -28 36q-11 -25 -25 -66q30 15 53 30z
" />
    <glyph glyph-name="plus" unicode="+" 
d="M500 453q0 -14 -11 -23.5t-20 -9.5q-5 0 -12 2.5t-13 2.5q-5 0 -31.5 -6.5t-37.5 -7.5q-14 -1 -33 -4q-3 -28 -3 -31q0 -6 5 -34.5t5 -34.5q0 -24 -7 -49q-10 -35 -26 -35q-14 0 -23.5 11t-9.5 20q0 5 2.5 12t2.5 13q0 5 -6.5 31.5t-7.5 37.5q-1 19 -6 46
q-175 -35 -172 -35q-84 0 -84 66q0 30 42 57q37 24 65 24q14 0 142 -18q-3 75 -3 144q0 28 9 40.5t34 14.5q18 2 23 -24q1 -24 3 -48q6 -50 -6 -133q36 4 95 4q24 0 49 -7q35 -10 35 -26zM224 436q-4 4 -27 12q-27 9 -50 9q-20 0 -34 -8q-17 -9 -30 -24q-5 -6 -5 -10
q0 -7 18 -7q24 0 75 13q44 10 53 15z" />
    <glyph glyph-name="comma" unicode="," horiz-adv-x="198" 
d="M167 77q0 -27 -27 -81q-33 -64 -71 -64q-7 0 -13.5 10t-6.5 17q0 8 14 22q19 19 22 23q-67 19 -67 77q0 26 22.5 54.5t49.5 28.5q30 0 55 -32q22 -29 22 -55zM112 81q0 -5 -6 7q-9 16 -16 17q-13 1 -21 -9q-8 -11 0 -26q8 -14 23 -12q6 0 11 9q1 3 7 14h2z" />
    <glyph glyph-name="hyphen" unicode="-" 
d="M500 453q0 -14 -11 -23.5t-20 -9.5q-5 0 -12 2.5t-13 2.5q-5 0 -31.5 -6.5t-37.5 -7.5q-49 -3 -161 -28q-107 -24 -118 -24q-84 0 -84 66q0 30 42 57q37 24 65 24q6 0 114 -15t114 -15t34.5 5t34.5 5q24 0 49 -7q35 -10 35 -26zM224 436q-4 4 -27 12q-27 9 -50 9
q-20 0 -34 -8q-17 -9 -30 -24q-5 -6 -5 -10q0 -7 18 -7q24 0 75 13q44 10 53 15z" />
    <glyph glyph-name="hyphen" unicode="&#x2010;" 
d="M500 453q0 -14 -11 -23.5t-20 -9.5q-5 0 -12 2.5t-13 2.5q-5 0 -31.5 -6.5t-37.5 -7.5q-49 -3 -161 -28q-107 -24 -118 -24q-84 0 -84 66q0 30 42 57q37 24 65 24q6 0 114 -15t114 -15t34.5 5t34.5 5q24 0 49 -7q35 -10 35 -26zM224 436q-4 4 -27 12q-27 9 -50 9
q-20 0 -34 -8q-17 -9 -30 -24q-5 -6 -5 -10q0 -7 18 -7q24 0 75 13q44 10 53 15z" />
    <glyph glyph-name="hyphen" unicode="&#x2010;" 
d="M500 453q0 -14 -11 -23.5t-20 -9.5q-5 0 -12 2.5t-13 2.5q-5 0 -31.5 -6.5t-37.5 -7.5q-49 -3 -161 -28q-107 -24 -118 -24q-84 0 -84 66q0 30 42 57q37 24 65 24q6 0 114 -15t114 -15t34.5 5t34.5 5q24 0 49 -7q35 -10 35 -26zM224 436q-4 4 -27 12q-27 9 -50 9
q-20 0 -34 -8q-17 -9 -30 -24q-5 -6 -5 -10q0 -7 18 -7q24 0 75 13q44 10 53 15z" />
    <glyph glyph-name="period" unicode="." horiz-adv-x="195" 
d="M169 104q0 -33 -24 -57t-50 -24q-27 0 -47.5 22t-20.5 47q0 28 24 54.5t51 26.5q23 0 45 -23.5t22 -45.5zM121 101q-4 15 -22 15q-22 0 -19 -23q2 -15 16 -17q10 -2 18.5 6.5t6.5 18.5z" />
    <glyph glyph-name="slash" unicode="/" horiz-adv-x="590" 
d="M564 683q0 -57 -55 -122q-27 -32 -122 -118q-86 -78 -124 -129q-46 -63 -144 -218q-11 -16 -28 -31q-20 -17 -32 -17q-16 0 -26.5 15t-10.5 32q0 29 20 52q89 95 129 150q29 40 57 81q24 33 59 98q24 47 48 93l54 122q35 70 76 70q30 0 61 -20q38 -24 38 -58zM489 643
q0 19 -19 19q-9 0 -26.5 -14.5t-23.5 -26.5q-10 -19 -25 -66t-23 -63q30 32 61 64q56 63 56 87z" />
    <glyph glyph-name="zero" unicode="0" horiz-adv-x="538" 
d="M514 439q0 -236 -86 -345q-16 -21 -52 -43q-46 -28 -86 -30q-10 -1 -25 0q-17 2 -21 2q-132 0 -192 136q-38 89 -38 204q0 117 63 247q82 167 214 167q21 0 56 -16q32 -14 53 -32q114 -96 114 -290zM432 470q0 43 -34 112q-44 93 -110 93q-74 0 -135 -84
q-56 -77 -56 -154q0 -52 49 -103q38 -39 134 -103q20 -12 61 -48q13 -23 34 -55q57 75 57 342zM198 195.5q-85 61.5 -107 96.5l16 -75q-1 -15 41 -73q48 -67 88 -65q54 3 54 35q0 6 -3.5 13t-88.5 68.5z" />
    <glyph glyph-name="one" unicode="1" horiz-adv-x="210" 
d="M178 160q0 -141 -70 -141q-45 0 -66 70q-12 43 -12 89q0 18 39 153q2 7 10 110q9 107 9 136q0 -4 2 27q1 28 0 48q-1 29 -8 44q-4 12 -28 16t-28 16q-5 17 0 30q5 11 23 11q9 0 24 -3t17 -3q42 0 59 -19q7 -9 7 -34q0 -18 -7 -79q-6 -56 -4 -81q5 -76 20 -240
q13 -147 13 -150zM119 114q13 8 13 55q0 56 -14 132q-30 -68 -30 -139q0 -24 7 -39q9 -18 24 -9z" />
    <glyph glyph-name="two" unicode="2" horiz-adv-x="501" 
d="M483 36q0 -30 -46 -30q-132 0 -160 6q-63 10 -166 30l-34 6q-24 6 -36 15q-8 5 -6 59q1 51 5 60q16 33 69 72q94 70 99 74q59 50 89 111q33 68 33 69q19 45 19 82q0 30 -16 69q-21 49 -53 49q-11 0 -37 -28t-32 -40q-5 -21 -21 -63q-12 -24 -39 -50q-38 -35 -72 -36
q-32 0 -54 37q-18 32 -18 62q0 48 64.5 120t99.5 72q88 0 137 -16q80 -26 108 -101q14 -35 14 -97q0 -71 -32 -134q-25 -52 -84 -121q-27 -32 -101 -99q-61 -56 -86 -94q26 -13 81 -15q44 -2 87 -4q27 -3 88 -11q12 -1 33.5 3t28.5 4q17 0 27.5 -14t10.5 -47zM206 725
q-99 -13 -102 -69q-1 -19 5 -35q4 -11 12 -11q16 0 48 53q18 31 37 62z" />
    <glyph glyph-name="three" unicode="3" horiz-adv-x="527" 
d="M491 304q0 -94 -57 -177q-66 -98 -170 -98h-69q-24 0 -72 19q-58 22 -58 45q0 29 60 56q6 0 50 -16t49.5 -16t26.5 -5t27 -5q121 0 121 205q0 36 -22 56.5t-55 20.5q-2 0 -62 -39t-77 -39q-39 0 -73 21q-40 24 -40 62q0 18 30 55.5t64 53.5q13 7 47 7q6 0 50.5 -9.5
t49.5 -9.5q31 -2 53 31q17 27 17 56q0 53 -43 82q-36 24 -83 24q-21 0 -36 -5.5t-51 -17.5q-28 -10 -75 -39q-42 -24 -46 -24q-14 0 -23.5 11t-9.5 26q0 56 96 97q74 32 124 32q64 0 137 -51q83 -57 83 -127q0 -24 -19 -71t-37 -63q8 -8 31 -21.5t31.5 -23.5t19.5 -47
t11 -56zM278 429q-11 3 -44 15q-29 10 -35 10q-9 0 -20.5 -15t-11.5 -26q0 -15 10 -26t25 -11q9 0 76 53z" />
    <glyph glyph-name="four" unicode="4" horiz-adv-x="426" 
d="M378 641q0 -40 -21.5 -130t-21.5 -133q0 -48 12 -146t12 -147q0 -21 -14 -42q-16 -24 -36 -24q-32 0 -34 12q-10 61 -10 277q-14 3 -35 2q-32 -3 -35 -3q-17 0 -50.5 8.5t-48.5 17.5q-71 40 -71 322q0 22 12 52q14 36 31 36q50 0 50 -98q0 -26 -3 -77.5t-3 -77.5
q0 -72 16 -93q20 -28 91 -28q27 0 37 14q8 11 8 38q0 42 -38 116.5t-38 115.5q0 38 23 73q26 40 62 40q47 0 76 -38.5t29 -86.5zM325 599q2 15 -8.5 31t-26.5 16q-28 0 -28 -44q0 -29 37 -88q10 20 26 85z" />
    <glyph glyph-name="five" unicode="5" horiz-adv-x="414" 
d="M380 753q1 -22 -19 -37t-37 -15q-5 0 -51 3t-52 3q-49 0 -54 -1q-22 -2 -33 -16q-33 -37 -33 -155q0 -13 85 -26q98 -14 125 -35q56 -43 60 -120q3 -58 -42 -130q-23 -36 -95 -108q-91 -92 -133 -92q-36 0 -62 17.5t-26 49.5q0 53 80 91q47 17 93 33q38 16 73 49
q41 40 41 76q0 79 -128 85q-97 5 -102 6q-18 3 -30 22q-9 14 -12 58q-3 40 1 60q2 11 4 104q2 60 21 73q17 10 39 11t43 2q39 1 117 4q14 1 40 4q23 3 29 3q41 0 58 -19zM229 174h-23q-15 1 -60 -21.5t-45 -33.5q0 -8 10.5 -16t18.5 -8q23 0 44 23q47 49 55 56z" />
    <glyph glyph-name="six" unicode="6" horiz-adv-x="469" 
d="M198 463q-38 -48 -50 -65q-25 -35 -33 -55q11 1 59 15q38 12 67 8q77 -9 130.5 -60t53.5 -122q0 -68 -64 -122q-60 -51 -127 -51h-31q-82 0 -136 85q-46 74 -46 153q0 55 51 183q56 140 126 236q84 117 158 117q29 0 57 -21q32 -23 32 -51q0 -33 -107 -126
q-130 -112 -140 -124zM349 687q11 12 0 25q-2 1 -23 5q-5 1 -11 1q-51 0 -93 -88q-25 -51 -35 -99q16 36 73 81q77 63 89 75zM351 218q0 44 -60 68q-44 17 -88 17q-31 0 -73 -20q-51 -26 -51 -58q0 -52 42 -102q44 -54 95 -54q57 0 97 48q37 45 38 101z" />
    <glyph glyph-name="seven" unicode="7" horiz-adv-x="610" 
d="M588 688q0 -26 -77 -165q-53 -95 -93 -160l-100 -166q-89 -143 -114 -156q-7 -3 -14 -3q-17 0 -31 17.5t-14 29.5q0 45 86 175q81 115 161 230q87 127 87 162q0 16 -17.5 26t-34.5 10q-62 0 -137 -24q-40 -13 -115 -45q-57 -24 -73 -24q-84 0 -84 68q0 43 50 74
q42 26 81 26q-4 0 85 -8t145 -8q50 0 81 2q46 4 54 4q74 0 74 -65zM247 707q-14 -1 -47 3.5t-44 4.5q-21 0 -21 -10q0 -4 3 -10q9 -18 28 -25q7 -3 14 -3q27 0 67 40z" />
    <glyph glyph-name="eight" unicode="8" horiz-adv-x="504" 
d="M475 237q0 -84 -63 -149q-67 -67 -163 -67q-59 0 -139 47q-91 53 -91 114q0 59 29 117q31 62 85 99q-42 39 -56.5 76t-10.5 90q7 92 70 156.5t149 64.5q71 0 113.5 -38t42.5 -107q0 -134 -90 -228q35 -10 69 -45q55 -56 55 -130zM375 629q0 90 -38 87q-39 -3 -50 -49
q19 -13 34 -25q37 -29 47 -51q7 10 7 38zM332 519q0 27 -20 45q-12 11 -43 27t-41 27q-17 18 -15 51q1 9 21 49q-43 -15 -72 -78q-24 -52 -24 -97q0 -32 34 -72q39 -44 80 -37q31 5 57 37q23 28 23 48zM403 230q0 32 -41 83q-45 54 -87 54q-72 0 -116.5 -46.5t-44.5 -116.5
q0 -55 41 -90.5t92 -35.5q14 0 48 12q42 15 64 37q32 30 38 53.5t6 49.5z" />
    <glyph glyph-name="nine" unicode="9" horiz-adv-x="460" 
d="M425 133q0 -36 -26.5 -65t-61.5 -29q-32 0 -56 29q-23 26 -23 54q0 38 27.5 134.5t27.5 145.5q0 15 -2 28q-64 -9 -97 -9q-62 0 -123 32q-74 39 -74 99q0 38 41 99q36 53 62 71q12 8 56 25q54 21 80 21q5 0 16.5 1.5t15.5 1.5q33 0 47.5 -9.5t21.5 -25.5q16 -36 16 -120
q0 -18 -1 -65q-1 -42 -1 -71q0 -48 27 -178t27 -169zM311 487v169q0 18 -10 36q-13 23 -36 23q-50 0 -109.5 -46t-59.5 -92q0 -50 49 -78q38 -21 85 -21q3 0 34 4.5t47 4.5zM348 285q-9 -22 -22 -67.5t-13 -54.5t11 -21t24 -16q22 -5 22 35q0 15 -3 37.5t-3 24t-16 62.5z
" />
    <glyph glyph-name="colon" unicode=":" horiz-adv-x="195" 
d="M169 104q0 -33 -24 -57t-50 -24q-27 0 -47.5 22t-20.5 47q0 28 24 54.5t51 26.5q23 0 45 -23.5t22 -45.5zM121 101q-4 15 -22 15q-22 0 -19 -23q2 -15 16 -17q10 -2 18.5 6.5t6.5 18.5zM169 449q0 -33 -24 -57t-50 -24q-27 0 -47.5 22t-20.5 47q0 28 24 54.5t51 26.5
q23 0 45 -23.5t22 -45.5zM121 446q-4 15 -22 15q-22 0 -19 -23q2 -15 16 -17q10 -2 18.5 6.5t6.5 18.5z" />
    <glyph glyph-name="semicolon" unicode=";" horiz-adv-x="198" 
d="M167 77q0 -27 -27 -81q-33 -64 -71 -64q-7 0 -13.5 10t-6.5 17q0 8 14 22q19 19 22 23q-67 19 -67 77q0 26 22.5 54.5t49.5 28.5q30 0 55 -32q22 -29 22 -55zM112 81q0 -5 -6 7q-9 16 -16 17q-13 1 -21 -9q-8 -11 0 -26q8 -14 23 -12q6 0 11 9q1 3 7 14h2zM175 430
q0 -33 -24 -57t-50 -24q-27 0 -47.5 22t-20.5 47q0 28 24 54.5t51 26.5q23 0 45 -23.5t22 -45.5zM127 427q-4 15 -22 15q-22 0 -19 -23q2 -15 16 -17q10 -2 18.5 6.5t6.5 18.5z" />
    <glyph glyph-name="less" unicode="&#x3c;" horiz-adv-x="489" 
d="M440 83q0 -8 -20.5 -30t-27.5 -22q-2 0 -124 84.5t-141 97.5q-35 26 -69.5 68.5t-32.5 59.5q5 41 26 68.5t64 83.5q14 20 31 71q15 48 37 74q44 53 55 63q32 28 73 31q43 3 74 -19q32 -25 32 -70q0 -52 -75 -124q-45 -42 -141 -109q-76 -54 -76 -63q-1 -10 157 -129.5
t158 -134.5zM323 616q0 20 -32 20q-12 0 -24 -4q-22 -8 -50 -64q-25 -51 -25 -71q29 7 78 49q53 44 53 70z" />
    <glyph glyph-name="equal" unicode="=" 
d="M494 510q0 -14 -11 -23.5t-20 -9.5q-5 0 -12 2.5t-13 2.5q-5 0 -31.5 -6.5t-37.5 -7.5q-49 -3 -161 -28q-107 -24 -118 -24q-84 0 -84 66q0 30 42 57q37 24 65 24q6 0 114 -15t114 -15t34.5 5t34.5 5q24 0 49 -7q35 -10 35 -26zM503 355q0 -30 -42 -57q-37 -24 -65 -24
q-6 0 -114 15t-114 15t-34.5 -5t-34.5 -5q-24 0 -49 7q-34 9 -34 26q0 14 10.5 23.5t19.5 9.5q5 0 12 -2.5t13 -2.5t32 6.5t37 7.5q49 3 161 28q108 24 118 24q84 0 84 -66zM432 355q5 6 5 10q0 8 -18 8q-25 0 -76 -13q-42 -11 -52 -16q5 -5 27 -12q27 -8 50 -8q20 0 34 7
q18 9 30 24zM218 493q-4 4 -27 12q-27 9 -50 9q-20 0 -34 -8q-17 -9 -30 -24q-5 -6 -5 -10q0 -7 18 -7q24 0 75 13q44 10 53 15z" />
    <glyph glyph-name="greater" unicode="&#x3e;" horiz-adv-x="489" 
d="M25 681q0 8 20.5 30t28.5 22q1 0 123.5 -84.5t140.5 -97.5q35 -26 70 -68.5t32 -59.5q-5 -41 -26 -68.5t-64 -84.5q-14 -19 -30 -68.5t-37 -75.5q-43 -52 -56 -64q-32 -28 -73 -30q-43 -3 -73 19q-33 25 -33 70q0 52 75 123q45 43 141 110q76 54 77 63q0 10 -158 129.5
t-158 134.5zM143 148q0 -20 31 -20q13 0 24 4q22 7 50 63q25 51 25 72q-29 -7 -78 -49q-52 -44 -52 -70z" />
    <glyph glyph-name="question" unicode="?" horiz-adv-x="420" 
d="M399 632q0 -41 -20 -75q-11 -20 -52 -67q-44 -50 -71 -93q-14 -20 -29 -81q-14 -57 -18 -97q-1 -16 -21 -16q-11 0 -23.5 19t-12.5 28q0 42 20 108q19 62 39 91q10 15 48 50q43 39 58.5 57.5t15.5 63.5q0 27 -11 51q-14 30 -39 30q-29 0 -62 -23.5t-43 -48.5
q-12 -41 -23 -82q-24 -62 -64 -62q-32 0 -60 40q-23 35 -23 58q0 56 82 121q79 63 146 69q65 6 113 -32q50 -41 50 -109zM228 75q0 -18 -12 -31t-26 -13q-16 0 -26 17q-8 13 -8 23q0 18 10 33t26 15q13 0 26 -20q10 -17 10 -24zM152 687q-5 -5 -48 -32q-29 -19 -29 -38
q0 -5 1 -11q4 -12 12.5 -26t14.5 -14q2 0 3 3q18 56 23 69q12 32 23 49z" />
    <glyph glyph-name="at" unicode="@" horiz-adv-x="697" 
d="M669 150q0 -37 -46 -71q-42 -29 -76 -29q-260 0 -363 75q-77 57 -111 100q-45 57 -52 129q-1 16 -1 32q0 84 63 223q12 27 65 73q111 97 236 97q97 0 169 -88q67 -82 67 -171q0 -87 -36 -156q-44 -86 -122 -86q-69 0 -118.5 40t-49.5 102q0 136 97 175q17 7 51 8
q43 2 64 6q-13 49 -60 72q-33 16 -68 16q-126 0 -207 -129q-68 -107 -68 -219q0 -68 75 -113q64 -39 135 -39q66 0 133.5 29.5t97.5 29.5q46 0 84 -28q41 -32 41 -78zM528 480q-34 43 -60 43q-36 0 -61 -39q-21 -34 -21 -67q0 -19 12 -39q14 -24 32 -24q40 0 69 39t29 87z
M557 124q2 15 -15 30t-27 15t-54 -16t-64 -28q28 -24 81 -24h43q33 3 36 23z" />
    <glyph glyph-name="A" unicode="A" horiz-adv-x="680" 
d="M646 164q0 -35 -2 -47q-3 -22 -15 -43q-22 -38 -52 -49q-15 -6 -31 -6q-28 0 -45 10q-32 20 -45 55q-7 17 -17 72q-2 15 -2 47q0 33 4 97t4 97q-15 3 -33 3q-32 0 -93 -13q-72 -16 -101 -19q-25 -2 -38 -7q-25 -9 -34 -29q-15 -38 -30 -142q-1 -33 -1 -67q-4 -48 -28 -63
q-9 -6 -26 -6q-41 0 -41 60q0 12 29 127q21 83 98 313q26 80 37 106q25 62 49 90q20 23 41 29q14 4 57 -2q7 1 21 -2q43 -26 85 -101q17 -29 56 -115q19 -36 58 -112q14 -30 59 -152l22 -58q14 -40 14 -73zM444 486q-14 30 -38 88q-14 36 -34 72q-35 64 -60 64
q-9 0 -30.5 -20t-30.5 -51q-6 -18 -36 -94q-24 -60 -30 -99h18q10 0 95 13q93 15 146 27zM574 225q0 17 -28 83.5t-40 80.5q-2 -26 -9 -88q-5 -51 -5 -57q0 -43 2 -54q6 -36 30 -36t35 17q15 24 15 54z" />
    <glyph glyph-name="B" unicode="B" horiz-adv-x="439" 
d="M419 593q0 -131 -199 -292q16 -12 57 -20q38 -6 57 -24q13 -13 31.5 -42t18.5 -44q0 -85 -100 -128q-75 -34 -174 -34q-69 0 -81 24q-13 28 -15 39q-1 8 -1 55q0 83 6 259q6 201 13 257q7 64 81 101q63 33 141 33q65 0 115 -58.5t50 -125.5zM356 597q0 23 -8 42
q-10 26 -28 26q-20 0 -20 -22q0 -15 10 -46.5t10 -48.5q0 -33 -7 -78q16 15 30 60q13 42 13 67zM276 534q0 36 -17 69q-27 54 -30 62q-4 12 -14 44q-1 2 -7 2q-30 0 -55 -20q-39 -32 -49 -81l-12 -98q-4 -25 -7 -105q-1 -43 0 -119q69 54 82 65q40 36 73 79q36 48 36 102z
M312 173q0 28 -56 49q-47 19 -82 19t-64 -26q-33 -27 -33 -65q0 -33 4 -41q15 -32 72 -32q159 0 159 96z" />
    <glyph glyph-name="C" unicode="C" horiz-adv-x="567" 
d="M532 672q0 -14 -27.5 -35.5t-41.5 -21.5q-25 0 -74.5 33t-86.5 33q-103 0 -164 -133q-49 -107 -47 -221q1 -57 25 -118q22 -57 47 -74q12 -8 25 -8t45 11q20 7 37 29q23 29 34 37q103 79 141 79q36 0 59 -21.5t23 -57.5q0 -92 -67 -138q-58 -40 -154 -40q-26 0 -113 23
q-23 3 -66 18q-58 33 -87 117q-23 67 -23 149q0 124 69 262q81 164 191 164q29 0 111.5 -10t102.5 -17q41 -14 41 -60zM443 162q0 27 -37 27q-26 0 -66 -39q-13 -13 -55 -63q8 0 27 -1t28 -1q26 0 64.5 26t38.5 51z" />
    <glyph glyph-name="D" unicode="D" horiz-adv-x="504" 
d="M454 455q0 -65 -25 -137q-29 -84 -82 -147q-28 -33 -64.5 -58.5t-71.5 -48.5q-71 -49 -108 -49q-11 0 -40.5 9.5t-31.5 14.5q-13 42 -15 114v137q-9 406 21 466q11 21 43 24q26 0 52 1q14 1 27 1q115 0 207 -107q88 -103 88 -220zM372 441q0 73 -35 130q-31 53 -105 112
q-12 9 -46 18q-28 7 -40 7q-29 0 -41 -57q-7 -32 -7 -69q0 -102 47 -212q63 -150 76 -205q11 8 30.5 21.5l45.5 31.5q21 14 36 40q39 64 39 183zM144 209q0 24 -32 82q-37 69 -39 75q0 -37 -2 -174q-1 -33 5 -53q3 -10 34 -10q14 0 25 32q9 27 9 48z" />
    <glyph glyph-name="E" unicode="E" horiz-adv-x="460" 
d="M429 327q0 -32 -29.5 -54t-62.5 -22q-32 0 -114 43t-97 43q-34 0 -34 -119q0 -76 7 -98q16 -48 77 -48q29 0 87 21t87 21q12 0 28 -10.5t16 -21.5q0 -35 -106 -55q-77 -15 -141 -15q-17 0 -46 12q-37 15 -56 38t-23 62q-1 6 -1 60q0 147 51 186q-25 17 -39 57
q-12 34 -12 69q0 94 39 175q48 101 132 101q65 0 128 -13q93 -20 93 -61q0 -13 -6 -25q-9 -14 -21 -14q-17 0 -87 27t-98 27q-19 0 -29 -9q-40 -36 -56 -78q-16 -45 -16 -119q0 -50 12 -72q17 -31 64 -31q22 0 69.5 15.5t69.5 15.5q46 0 80 -31t34 -77zM323 333
q0 11 -11.5 23.5t-21.5 12.5q-11 0 -73 -16q74 -43 79 -43q7 0 17 8t10 15z" />
    <glyph glyph-name="F" unicode="F" horiz-adv-x="487" 
d="M445 694q-12 -18 -33 -18q-6 0 -61 7t-61 7q-30 0 -79 -11q-45 -9 -62 -17q-28 -13 -28 -101q0 -69 10 -77q7 -5 25 -4q38 2 35 2q4 0 22.5 2.5t24.5 2.5q34 0 43 -3q25 -7 25 -36q0 -18 -20 -31q-16 -11 -30 -11q-27 0 -64 -9t-43 -20q-3 -5 11 -84q15 -83 15 -86
q0 -42 -22 -106q-31 -87 -77 -87q-29 0 -50 33q-18 27 -18 45q0 24 17 116q18 98 21 146q6 122 2 162q-7 91 -4 158q1 27 1 30q2 21 8 30q12 17 53 22q11 2 66 4q155 6 233 6q26 0 40 -18q9 -13 9 -26q0 -14 -9 -28zM128 182q0 24 -10 53q-8 25 -14 29q-31 -83 -31 -127
q0 -20 10 -20q4 0 10 4q15 9 25 22.5t10 38.5z" />
    <glyph glyph-name="G" unicode="G" horiz-adv-x="541" 
d="M510 235q0 -67 -28 -128q-37 -80 -106 -80q-5 0 -29.5 -2.5t-30.5 -2.5q-117 0 -197 49q-100 60 -100 178q0 121 57 252q69 160 186 220q35 18 92 30q42 9 59 9q6 0 17.5 1t16.5 1q10 0 27 -12t17 -27q0 -19 -32.5 -40.5t-52.5 -21.5l-26.5 3t-47.5 3q-41 0 -65 -12
q-76 -38 -131 -210q-42 -132 -42 -192q0 -45 26.5 -86.5t92.5 -67.5q24 -9 52 -12q56 -6 118 19q-12 37 -72 100q-51 54 -51 101q0 34 33 52q27 15 64 15q58 0 105.5 -44t47.5 -95zM451 245q-15 37 -16 39q-12 21 -27 21q-9 0 -20 -7q-18 -12 -18 -30q0 -1 11 -45
q5 -20 30.5 -44.5t26.5 -26.5q2 7 11 34q7 21 7 35q0 13 -5 24z" />
    <glyph glyph-name="H" unicode="H" horiz-adv-x="509" 
d="M486 707q0 -4 -8.5 -31t-9.5 -41q-7 -155 -7 -220q0 -18 -2 -87q-1 -59 0 -95q1 -14 1 -29q2 -31 2 -57q0 -112 -27 -126q-8 -4 -16 -4q-31 0 -57 41q0 6 7 86t8 85q6 52 0 65q-37 -2 -127 -8q-82 -6 -93 -15q-4 -3 -4 -26q0 -19 4 -80.5t4 -89.5q0 -49 -9.5 -57
t-30.5 -8q-29 0 -36 13q-13 23 -15 74q1 27 1 55q0 6 -3 86q-2 62 -2 96q1 84 -22 181q-3 12 -16 52q-11 34 -11 40q0 56 28 99q34 52 92 52q37 0 60 -64q16 -46 16 -75q0 -48 -22 -142q-15 -59 -31 -118q43 -11 127 -1q29 2 83 6q1 3 1 94q-4 67 -4 187q3 39 25 71t51 32
q43 0 43 -41zM161 580q0 5 -17 41t-24 36q-15 0 -29 -25q-12 -21 -12 -32q0 -6 17 -74q19 -77 24 -108q13 36 27 96q14 56 14 66z" />
    <glyph glyph-name="I" unicode="I" horiz-adv-x="256" 
d="M217 135q-4 -9 -9 -26q-9 -36 -32 -65q-27 -36 -58 -36q-108 0 -108 149q0 11 26 110q5 15 12 47q6 89 15 284q0 16 3 51q1 21 2.5 42t11.5 33q17 20 22 20q10 0 30 -14q11 -8 11 -21q0 -6 -2.5 -18.5t-2.5 -19.5q0 -13 -2.5 -32t-3.5 -30q-2 -34 0 -71q7 -114 34 -183
q17 -40 35 -79q22 -54 22 -97q0 -23 -6 -44zM153 170q0 6 -13 63q-15 68 -19 90q-9 -9 -9 -21q0 -22 1 -19q-4 -20 -19 -65q-15 -40 -15 -43t-1 -12q-1 -8 0 -13q0 -7 4 -12q9 -13 27 -13q23 0 36 18q8 11 8 27z" />
    <glyph glyph-name="J" unicode="J" horiz-adv-x="429" 
d="M387 727q0 -474 -69 -632q-22 -52 -88 -100q-69 -53 -128 -53q-36 0 -56 34q-15 24 -15 49q0 30 51 64q45 31 65 31q5 0 29.5 -4.5t30.5 -4.5q8 0 24 15.5t25 32.5q35 66 35 178q0 24 -2 68.5t-2 63.5q0 26 -6 80t-6 81q0 50 15 89q6 14 24.5 36.5t32.5 22.5q40 0 40 -51
zM231 61q-13 3 -38 3q-82 0 -82 -44q0 -7 9.5 -13.5t17.5 -6.5q19 0 50 25q21 18 43 36z" />
    <glyph glyph-name="K" unicode="K" horiz-adv-x="423" 
d="M397 640q0 -12 -49 -72l-98 -94q-84 -81 -84 -100q0 -9 101.5 -146t101.5 -146q-1 -19 -11.5 -36.5t-25.5 -17.5q-4 0 -9 2q-18 8 -50 43t-45 60l-36 74q-32 58 -60 73q2 -81 2 -172q-1 -5 0 -18q2 -15 2 -21q0 -26 -17.5 -38t-31.5 -12q-19 0 -30 19q-4 7 -4 36
q0 22 5 113.5t5 149.5q0 102 -19 213.5t-19 117.5q0 42 23.5 69.5t61.5 27.5q75 0 75 -64q0 -21 -12.5 -92.5t-12.5 -102.5q0 -17 3 -29q44 55 89 111q82 97 100 97q20 0 32.5 -13t12.5 -32zM129 654q-1 20 -24 21q-11 1 -20 -7.5t-8 -20.5q3 -28 13.5 -67t12.5 -55l18 60
q10 36 8 69z" />
    <glyph glyph-name="L" unicode="L" horiz-adv-x="561" 
d="M540 89q0 -20 -44 -38q-39 -16 -63 -16q-46 0 -118.5 3.5t-117.5 3.5q-73 0 -71 0q-41 4 -58 28q-37 54 -38 121q-1 31 5.5 87t6.5 84q0 43 -10.5 127t-10.5 126q0 161 121 161q37 0 57 -31q16 -26 16 -66q0 -78 -52 -232t-52 -235q0 -45 8 -56l24 -20q14 -17 40 -20h48
q14 0 39.5 1t39.5 1q35 0 83.5 11.5t82.5 11.5q64 0 64 -52zM158 662q0 28 -18 28t-40.5 -34.5t-22.5 -54.5q0 -55 22 -180q12 30 35 121q24 97 24 120z" />
    <glyph glyph-name="M" unicode="M" horiz-adv-x="680" 
d="M657 537q0 -326 -14 -489q-1 -13 -14.5 -21.5t-24.5 -8.5q-25 0 -42 21q-14 18 -14 37q0 5 9.5 31.5t11.5 38.5q15 105 15 210q0 153 -12 223q-24 138 -98 138q-32 0 -64.5 -32t-32.5 -62q0 -3 17 -78q5 -23 23 -96q14 -57 14 -64q0 -62 -23 -108q-30 -57 -89 -57
q-51 0 -78 50q-20 37 -20 77q0 58 31 142.5t31 140.5q0 65 -38 65q-18 0 -38 -9q-24 -10 -29 -25q-70 -197 -70 -367q0 -92 27 -227q0 -32 -28 -49q-21 -14 -43 -14q-14 0 -34 23.5t-20 41.5q0 3 9.5 48.5t11.5 68.5l8 180q13 171 48 273q49 141 138 141q19 0 67 -22.5
t52 -35.5q54 51 72 59q10 3 58 3q183 0 183 -247zM374 396q0 12 -17 67q-19 60 -32 75q-14 -37 -29 -73q-16 -43 -16 -65q0 -60 42 -60q20 0 36 15t16 41z" />
    <glyph glyph-name="N" unicode="N" horiz-adv-x="512" 
d="M471 106q0 -23 -12 -44q-16 -27 -42 -27q-8 0 -19.5 8.5t-14.5 16.5q-7 16 -7 42q0 18 3 48q5 40 5 48q10 139 0 297q-1 26 -3 52q-5 40 -22.5 63t-51.5 39q-29 14 -44 14q-80 0 -80 -120q0 -25 30.5 -191t30.5 -218q0 -118 -96 -118q-57 0 -91 30t-34 81q0 71 34 205
q43 164 49 206q0 27 7 76q8 12 21 33q59 115 176 115q46 0 88 -57q36 -48 43 -91q16 -103 16 -166q0 -38 -5 -71v-198q0 -13 9.5 -41t9.5 -32zM183 212q0 7 -19 79q-22 85 -27 111l-9 6q-21 -133 -21 -179q0 -26 12 -47q14 -24 38 -24q12 0 19 21q7 17 7 33z" />
    <glyph glyph-name="O" unicode="O" horiz-adv-x="486" 
d="M463 324q0 -26 -13 -78q-5 -27 -11 -53q-10 -44 -25 -70q-26 -41 -81 -75.5t-94 -34.5q-5 0 -28 2.5t-31 2.5t-41.5 18t-50.5 31q-14 10 -32 51q-13 26 -30 81q-11 74 -11 215q0 125 45 224q58 129 170 129q72 0 124.5 -55t66.5 -140q10 -24 24 -71q18 -80 18 -177z
M367 480q0 1 -11 56q-8 42 -27 79q-5 9 -31 35q-31 32 -45 32h-25q0 -2 -2.5 -7t-2.5 -12t6 -19q9 -18 10.5 -21.5t3.5 -32.5q25 -12 42 -27q63 -60 82 -83zM378 324q0 19 -9 32.5t-18 27.5q-12 26 -41 71q-18 21 -51 55q-13 13 -61 40q-52 28 -67 28q-18 0 -33 -72
q-12 -57 -12 -81q0 22 8 -179q2 -60 27 -99q22 -35 57 -48q15 -6 49 -6h24q21 0 53.5 24.5t52 56.5t22.5 78q-1 -18 -1 72z" />
    <glyph glyph-name="P" unicode="P" horiz-adv-x="455" 
d="M429 627q0 -90 -79 -183q-45 -54 -146 -134q-79 -63 -79 -79q0 1 25 -47.5t25 -88.5q0 -38 -20 -62q-21 -28 -57 -28q-41 0 -59 23q-9 11 -19 93q-8 72 -8 101q0 52 24 315q3 60 7 120q12 65 66 93q25 13 68.5 24t70.5 11q56 0 118 -50q63 -53 63 -108zM342 629
q0 42 -30 68t-73 26q-78 0 -113 -66q-24 -45 -29 -134q-1 -23 -10 -103q-8 -73 -8 -90q0 -10 5 -10q42 0 132 87q84 81 107 129q4 9 11.5 45.5t7.5 47.5zM116 141q-3 17 -21 35q-12 11 -24 21q-5 -39 0 -60q2 -10 4 -20.5t11 -14.5q16 -7 28 1q8 6 2 38z" />
    <glyph glyph-name="Q" unicode="Q" horiz-adv-x="472" 
d="M440 55q0 -19 -15.5 -30t-32.5 -11q-5 0 -30.5 21.5t-31.5 21.5t-33.5 -14.5t-33.5 -14.5t-23 -2t-23 -2q-121 0 -173 110q-35 75 -35 193q0 99 41 240q60 207 165 207q43 0 89.5 -19.5t70.5 -52.5q34 -46 50 -202q10 -93 10 -163q0 -32 -8 -104q-7 -66 -8 -68
t-11.5 -14.5t-10.5 -19.5l21.5 -22.5t21.5 -53.5zM369 489q0 4 -1 17v17q0 15 -24 72q-29 69 -57 69q-45 0 -45 -40q0 -35 48 -79q36 -33 79 -56zM328 452q-62 32 -85 49q-56 43 -97 116q-66 -106 -66 -323q0 -85 21 -121q34 -59 78 -73q12 -4 24 -4q19 0 50.5 11.5
t42.5 13.5q-5 9 -29 38q-18 23 -18 30q0 35 40 35q13 0 54 -28q12 19 24 63q14 53 14 97q0 31 -7 53.5t-46 42.5z" />
    <glyph glyph-name="R" unicode="R" horiz-adv-x="501" 
d="M474 596q0 -74 -52 -140q-35 -43 -114 -103q-16 -12 -52 -30t-52 -29q70 -34 141 -68q95 -56 95 -113q0 -41 -24 -66.5t-65 -25.5q-38 0 -83 36q-20 17 -76 76q-46 49 -74 65q0 -150 -3 -171q-2 -16 -22 -17q19 1 -41 1q-27 0 -27 65q0 26 3 72.5t3 72.5q0 52 -2 156.5
t-2 156.5q0 100 24 156q13 30 97 60q75 26 117 26q89 0 146 -44q63 -49 63 -136zM414 603q0 50 -47 80q-42 27 -94 27q-158 0 -158 -216q0 -26 3 -78t3 -78h15q19 0 66 31q39 26 65 50q23 15 55 37q37 25 63 64q29 44 29 83zM340 140q0 9 -23 36q-11 13 -29.5 19.5
t-35.5 12.5q-43 20 -48 16q2 -1 28 -42q23 -36 48 -47q34 -14 41 -14q19 0 19 19z" />
    <glyph glyph-name="S" unicode="S" horiz-adv-x="541" 
d="M524 683q0 -41 -45 -73q-38 -27 -66 -27q-6 0 -80.5 27.5t-80.5 27.5q-45 0 -69 -50q-17 -35 -17 -71q0 -34 33 -74t79 -58q26 -9 73 -31q31 -18 62 -37q46 -34 52 -72q6 -36 -13 -81q-6 -14 -38 -55q-9 -12 -33 -37q-22 -19 -63 -32q-86 -29 -100 -29q-6 0 -42 -4.5
t-42 -4.5q-33 0 -75 25q-48 29 -48 64q0 65 44 84q21 9 79 9q2 0 56.5 -19t77.5 -24q37 -7 38 -7q30 0 60.5 22.5t30.5 54.5q0 23 -10 37q-2 3 -30 24q-24 18 -81 40q-96 38 -140 78q-22 19 -38 56q-14 33 -14 58q0 28 12 67q16 47 41 75q15 23 48 62q74 71 210 71
q5 0 18 -6t19 -7q92 -20 92 -83zM417 681q2 17 -37 32q-9 3 -19 3q-16 0 -68 -26q9 -11 39 -15t35 -7q10 -7 22 -7q25 0 28 20zM261 77q-103 39 -116 39q-10 0 -18 -8t-8 -18q0 -12 19 -24q16 -9 25 -9q29 0 98 20z" />
    <glyph glyph-name="T" unicode="T" horiz-adv-x="766" 
d="M741 668q0 -92 -175 -131q-24 -5 -74 -2q-42 3 -116 28q-1 -18 4 -51q6 -39 7 -55v-98q0 -6 -3 -23.5t-3 -23.5q0 -5 9.5 -107t9.5 -108q0 -28 -17 -57q-20 -34 -48 -34q-47 0 -47 54q0 3 6.5 22t10.5 44q6 44 6 72q0 85 -16 334q-2 42 -6 50q-9 17 -42 22q-29 5 -55 5
q-5 0 -25 -4.5t-25.5 -4.5t-28 -2.5t-28.5 -2.5q-21 0 -25 1q-16 6 -29.5 28t-13.5 37q0 10 22 23.5t27 13.5q13 0 39 -5.5t45 -5.5q11 0 42.5 -1.5t36.5 -1.5q11 0 107 24q13 4 57 16q101 27 119 31q59 13 112 13q66 0 91 -26q21 -21 24 -32q2 -7 2 -42zM507 693
q-27 0 -119 -25q-14 -4 -30 -20q49 -18 99 -35q63 -23 90 -23q8 0 24.5 21t16.5 40q0 42 -81 42z" />
    <glyph glyph-name="U" unicode="U" horiz-adv-x="501" 
d="M481 671q0 -19 -43.5 -233.5t-53.5 -243.5q-24 -72 -76 -122q-59 -56 -129 -56q-84 0 -123 90q-29 66 -29 162q0 44 6 126q6 87 7 126q0 21 -2 61t-2 58q0 62 3 77q8 49 43 49q26 0 41.5 -19t15.5 -46q0 -5 -11.5 -30t-12.5 -33q-21 -100 -21 -359q0 -98 10 -132
q21 -69 95 -69q77 0 113 117q25 80 25 180q0 75 -14 128q-9 13 -23 42q-6 18 -14 65t-8 66q0 106 90 106q48 0 80.5 -31t32.5 -79zM420 618q0 67 -45 67q-13 0 -23 -19.5t-10 -34.5q0 -27 21.5 -75.5t21.5 -67.5q14 19 25 63q10 40 10 67z" />
    <glyph glyph-name="V" unicode="V" horiz-adv-x="665" 
d="M642 690q0 -23 -58 -155q-67 -156 -72 -171q-41 -128 -110 -324q-8 -18 -36 -18q-19 0 -53 10q-12 4 -31 41q-33 64 -36 70q-16 23 -49 78q-16 37 -55 115q-48 82 -55 94q-29 53 -41 87q-7 24 -17.5 75.5t-10.5 62.5q0 42 18 74q22 38 61 38q52 0 86 -80q24 -57 37 -149
q5 -43 9 -86l6 -56q4 -37 14 -64q3 -8 33 -63q1 -2 31 -72q17 -39 40 -55q5 33 51 174q22 57 61 170q16 74 52 219q4 12 23.5 26t27.5 14q29 0 49 -12q25 -15 25 -43zM161 445q2 26 4 51q-1 59 -10 107q-8 39 -35 39q-26 0 -26 -45q0 -32 28 -84q19 -34 39 -68z" />
    <glyph glyph-name="W" unicode="W" horiz-adv-x="720" 
d="M680 605q0 -68 -14 -183q-18 -152 -21 -183q-7 -87 -49 -143q-49 -64 -131 -64q-41 0 -86 23q-53 26 -57 61q-54 -59 -112 -59q-108 0 -152 79q-33 60 -33 177q0 175 1 210q3 127 19 205q7 38 35 44q23 5 39 -17t16 -47q0 -53 -13 -160t-13 -160q0 -7 -1 -36t-1 -49
q0 -165 62 -165q43 0 58.5 16t15.5 57q0 28 -18 85.5t-18 84.5q0 51 28.5 87.5t77.5 36.5q64 0 96 -48q27 -41 25 -107q-1 -29 -24 -96t-23 -68q0 -26 34 -50q31 -22 59 -24q24 -1 49 38q2 2 26 50q20 39 25 164q2 37 2 175q0 178 49 178t49 -112zM361 323q0 17 -14 36.5
t-34 17.5q-36 -3 -36 -64q0 -8 45 -120q2 11 22 63q16 45 17 67z" />
    <glyph glyph-name="X" unicode="X" horiz-adv-x="645" 
d="M622 619q0 -15 -112.5 -130.5t-112.5 -140.5q0 -42 52 -100q11 -12 96 -91q52 -49 52 -70q0 -23 -28.5 -39.5t-53.5 -16.5q-20 0 -93 107q-46 67 -82 128q-25 -22 -70.5 -89.5t-72.5 -93.5q-45 -45 -93 -45q-26 0 -57 31t-31 57q0 89 89 160q71 57 172 86q-9 23 -93 171
q-74 132 -74 156q0 12 11 29t24 17q22 0 55 -61q33 -65 67 -130q40 -77 79 -125q22 25 228 241q19 0 33.5 -16t14.5 -35zM274 301q-46 -20 -91 -40q-57 -32 -57 -72q0 -16 13 -33t28 -17q27 0 63 68z" />
    <glyph glyph-name="Y" unicode="Y" horiz-adv-x="475" 
d="M458 744q-22 -84 -124 -299q-73 -153 -113 -227q-63 -116 -91 -195q-2 -6 -13.5 -15.5t-18.5 -9.5q-34 0 -34 43q0 23 38 90q20 34 41 68q18 43 37 86q25 53 47 77q-24 26 -49 70q-20 38 -68 90q-55 60 -70 81q-32 47 -32 92q0 28 10 49q13 26 34 26q74 0 97 -83
q26 -92 43 -133q20 -47 65 -123q23 48 67 143q14 25 27 50q19 35 26 65q3 24 15 71q2 6 13 14t17 8q15 0 27.5 -12t8.5 -26zM151 549q-6 12 -20 60q-12 39 -35 77q-3 5 -9 5q-9 0 -18.5 -7.5t-9.5 -14.5q0 -3 1 -5q21 -35 53 -72q19 -21 38 -43z" />
    <glyph glyph-name="Z" unicode="Z" horiz-adv-x="651" 
d="M623 149q0 -104 -178 -120q-25 -2 -55 5q-42 11 -54 12q-71 9 -89 9q-78 0 -110.5 -5t-48.5 -5q-74 0 -74 64q0 53 115 184l168 172q154 165 154 212q0 7 -8 14.5t-16 7.5q-28 0 -157.5 -12t-125.5 -12q-21 0 -54 15q-42 20 -42 46q0 33 140 33q22 0 89 -3q27 -1 90 3
q67 4 65 4h26q18 1 26 1q71 0 75 -41q5 -43 -154 -254q-129 -165 -259 -331h52q2 0 34 3q28 3 35 3q2 0 78 28q14 5 67 36q35 21 94 29q40 5 81 -35q36 -36 36 -63zM515 126q0 12 -15.5 22t-30.5 10q-19 0 -63 -25q-37 -21 -48 -32q51 -16 89 -16q19 0 41 11q27 13 27 30z
" />
    <glyph glyph-name="bracketleft" unicode="[" horiz-adv-x="368" 
d="M326 121q0 -48 -46 -74q-36 -20 -78 -20h-63q-88 0 -95 10.5t-8 353.5q-2 343 5.5 358.5t100.5 17.5q60 2 112 -1q20 -1 39 -1q20 -5 20 -28q0 -7 -10.5 -25t-19.5 -18q-5 0 -19 2t-20 2q-37 0 -31 1q-69 -6 -96 -15q-15 -5 -5 -195q1 -72 5 -235q0 -62 4 -128
q11 4 84 36q39 18 67 18q54 0 54 -59zM241 84q8 4 8 18q0 15 -10 15q-27 -1 -70 -31q40 -9 45 -9q14 0 27 7z" />
    <glyph glyph-name="backslash" unicode="\" horiz-adv-x="590" 
d="M564 95q0 -17 -10.5 -32t-26.5 -15q-12 0 -30.5 16t-29.5 32q-98 155 -144 218q-38 51 -124 129q-95 86 -122 118q-55 65 -55 122q0 34 38 58q31 20 61 20q41 0 76 -70l54 -122q24 -46 48 -93q35 -65 59 -98q28 -41 57 -81q40 -55 129 -150q20 -23 20 -52zM214 492
q-8 16 -23 63t-25 66q-6 12 -23.5 26.5t-26.5 14.5q-19 0 -19 -19q0 -24 56 -87q31 -32 61 -64z" />
    <glyph glyph-name="bracketright" unicode="]" horiz-adv-x="368" 
d="M42 671q0 49 46 75q36 20 78 20h63q88 0 95 -10.5t9 -353.5q1 -344 -6.5 -359t-100.5 -18q-60 -1 -112 2q-20 0 -39 2.5t-19 26.5q0 6 10 24.5t19 18.5q5 0 19 -2t20 -2q37 0 31 -1q69 6 96 15q16 5 5 195q-1 71 -5 235q0 62 -4 128q-11 -4 -83 -36q-40 -18 -68 -18
q-54 0 -54 58zM127 709q-8 -5 -8 -18q0 -15 10 -15q27 1 71 30q-41 10 -46 10q-14 0 -27 -7z" />
    <glyph glyph-name="asciicircum" unicode="^" horiz-adv-x="417" 
d="M392 597q0 -13 -14 -21.5t-23 -8.5q-22 0 -60 51.5t-46 51.5q-12 0 -32 -35q-29 -48 -44 -64q-30 -35 -66 -33q-27 2 -53.5 28.5t-23.5 54.5q5 52 73 101q61 42 101 42q55 0 121.5 -57.5t66.5 -109.5zM172 693q-15 -5 -29 -12q-32 -16 -49 -37q-2 -2 -2 -6q0 -10 9 -22
t16 -10q34 7 55 87z" />
    <glyph glyph-name="underscore" unicode="_" 
d="M494 110q0 -14 -11 -23.5t-20 -9.5q-5 0 -12 2.5t-13 2.5q-5 0 -31.5 -6.5t-37.5 -7.5q-49 -3 -161 -28q-107 -24 -118 -24q-84 0 -84 66q0 30 42 57q37 24 65 24q6 0 114 -15t114 -15t34.5 5t34.5 5q24 0 49 -7q35 -10 35 -26zM218 93q-4 4 -27 12q-27 9 -50 9
q-20 0 -34 -8q-17 -9 -30 -24q-5 -6 -5 -10q0 -7 18 -7q24 0 75 13q44 10 53 15z" />
    <glyph glyph-name="grave" unicode="`" horiz-adv-x="233" 
d="M202 735q0 -14 -29 -33q-12 -7 -35 -12q22 -5 36 -24.5t14 -43.5q0 -26 -29 -52t-49 -26q-36 0 -64 25t-28 67q0 55 58 95q51 35 98 35q11 0 19.5 -10.5t8.5 -20.5zM127 627q-3 22 -27 22q-15 0 -15 -15q0 -13 8.5 -25t17.5 -8q18 7 16 26z" />
    <glyph glyph-name="a" unicode="a" horiz-adv-x="680" 
d="M646 164q0 -35 -2 -47q-3 -22 -15 -43q-22 -38 -52 -49q-15 -6 -31 -6q-28 0 -45 10q-32 20 -45 55q-7 17 -17 72q-2 15 -2 47q0 33 4 97t4 97q-15 3 -33 3q-32 0 -93 -13q-72 -16 -101 -19q-25 -2 -38 -7q-25 -9 -34 -29q-15 -38 -30 -142q-1 -33 -1 -67q-4 -48 -28 -63
q-9 -6 -26 -6q-41 0 -41 60q0 12 29 127q21 83 98 313q26 80 37 106q25 62 49 90q20 23 41 29q14 4 57 -2q7 1 21 -2q43 -26 85 -101q17 -29 56 -115q19 -36 58 -112q14 -30 59 -152l22 -58q14 -40 14 -73zM444 486q-14 30 -38 88q-14 36 -34 72q-35 64 -60 64
q-9 0 -30.5 -20t-30.5 -51q-6 -18 -36 -94q-24 -60 -30 -99h18q10 0 95 13q93 15 146 27zM574 225q0 17 -28 83.5t-40 80.5q-2 -26 -9 -88q-5 -51 -5 -57q0 -43 2 -54q6 -36 30 -36t35 17q15 24 15 54z" />
    <glyph glyph-name="b" unicode="b" horiz-adv-x="382" 
d="M357 210q0 -90 -56 -141q-53 -47 -138 -47q-17 0 -61 13q-54 16 -61 33q-19 44 -17 151q4 244 2 355q0 15 -4 52.5t-4 39.5q0 38 24 69q27 36 70 36q67 0 72 -105q2 -51 -43.5 -149t-45.5 -147q0 -10 12 -12t23 -3q13 -2 33.5 6t22.5 8q76 0 123.5 -41.5t47.5 -117.5z
M143 640q0 12 -13.5 29t-23.5 17q-19 0 -31 -26q-9 -22 -9 -44q0 -29 9 -136zM286 186q0 40 -13 70q-17 39 -52 39t-71 -9q-47 -11 -54 -30q-8 -22 -5 -79v-38q0 -20 13 -32q15 -15 56 -15h44q82 0 82 94z" />
    <glyph glyph-name="c" unicode="c" horiz-adv-x="567" 
d="M532 672q0 -14 -27.5 -35.5t-41.5 -21.5q-25 0 -74.5 33t-86.5 33q-103 0 -164 -133q-49 -107 -47 -221q1 -57 25 -118q22 -57 47 -74q12 -8 25 -8t45 11q20 7 37 29q23 29 34 37q103 79 141 79q36 0 59 -21.5t23 -57.5q0 -92 -67 -138q-58 -40 -154 -40q-26 0 -113 23
q-23 3 -66 18q-58 33 -87 117q-23 67 -23 149q0 124 69 262q81 164 191 164q29 0 111.5 -10t102.5 -17q41 -14 41 -60zM443 162q0 27 -37 27q-26 0 -66 -39q-13 -13 -55 -63q8 0 27 -1t28 -1q26 0 64.5 26t38.5 51z" />
    <glyph glyph-name="d" unicode="d" horiz-adv-x="362" 
d="M325 301q-2 -64 -14 -194q-3 -27 -44.5 -55t-85.5 -31q-68 -5 -117 31q-53 39 -53 107q0 82 75 142q72 57 165 60q0 3 2 10.5t2 12.5q0 20 -24 99q-2 9 -40 98q-31 73 -31 97q0 20 24 55q26 39 50 39q59 0 77 -75q7 -26 14 -144q7 -104 0 -252zM271 527q5 27 5 52
q0 23 -5 39t-10 35t-13 19q-3 0 -7 -2q-11 -6 -15 -31q-6 -39 45 -112zM252 294q0 11 -31 11q-20 0 -33 -8q-58 -36 -68 -44q-35 -32 -35 -81q0 -91 79 -91q89 0 85 100q0 20 1 65q2 50 2 48z" />
    <glyph glyph-name="e" unicode="e" horiz-adv-x="582" 
d="M546 157q0 -21 -37 -67q-25 -30 -28 -34q-16 -15 -39 -22q-32 -9 -116 -9q-161 0 -220 51q-52 45 -68 76q-21 39 -27 117q-1 16 6 104q8 104 19 160q9 43 35 81q27 42 86 95q76 69 122 69q27 0 54 -5q32 -7 62 -19q19 -11 67 -38q84 -46 84 -116q0 -6 2 -21t2 -24
q0 -43 -35 -102q-25 -43 -84 -69q-38 -17 -115 -35q-80 -19 -107 -30q-41 -14 -82 -27q-19 -9 -19 -55t26 -76.5t45 -30.5t66 33q74 51 90 60q55 31 95 29q32 -2 39 -4q17 -4 45 -26q12 -9 22 -31.5t10 -33.5zM459 605q0 41 -52 76q-43 30 -73 30q-101 1 -166 -92
q-60 -85 -55 -188q-3 -30 -1 -82l138 30q85 21 128 45q81 46 81 181zM434 157q-14 22 -41 27q-24 4 -80 -42q-32 -27 -63 -54q18 8 80 8q24 0 62 13q47 16 47 36q0 6 -5 12z" />
    <glyph glyph-name="f" unicode="f" 
d="M504 515q0 -31 -30.5 -57t-52.5 -26q-32 0 -63 55q-25 44 -28 69q-6 54 -7 60q-10 42 -39 57t-52 9q-17 -5 -34 -25q-16 -15 -39 -53q-18 -49 -19 -117q-1 -67 6 -74q32 -1 74 -2q10 -1 13 -4q8 -6 10 -30t-5 -30q-16 -14 -82 -14q-16 -15 -16 -79q0 2 8.5 -76.5
t8.5 -113.5q0 -23 -4 -28q-15 -19 -46 -19q-28 0 -43 15q-7 5 -7 33q0 21 4.5 61.5t4.5 44.5v157q-17 8 -26 8q-3 0 -6 -1t-4 -1q-11 0 -11 26q0 24 9 41q1 3 18.5 4t22.5 12q12 33 12.5 101t9.5 94q22 62 81 105q54 39 106 39q88 0 159 -83q67 -78 67 -158zM434 565
q0 27 -27.5 62t-55.5 41q11 -37 21 -74q19 -61 38 -61q24 0 24 32z" />
    <glyph glyph-name="g" unicode="g" horiz-adv-x="489" 
d="M459 554q0 -44 -16 -226q-5 -52 -9 -76q-8 -51 -25 -84q-22 -43 -70 -90q-16 -15 -56 -44q-38 -22 -105 -28q-54 -5 -73 1q-33 10 -60 43q-25 30 -25 50q0 39 33 61q26 16 57 16q12 0 60.5 -17t102.5 -17q33 0 52 10t35 55q13 37 14 61v40q-85 -19 -120 -17
q-66 3 -125.5 27.5t-81.5 59.5q-18 29 -18 83q0 106 98 204t208 98q68 0 101 -91q23 -60 23 -119zM390 524q0 164 -110 164q-48 0 -113.5 -78.5t-65.5 -138.5q0 -55 44 -89q40 -31 99 -31q5 0 14.5 3.5t11.5 3.5q25 3 50.5 6t41.5 20q13 14 24 58q4 18 4 82zM273 86
q-17 2 -57 13q-36 10 -41 10q1 0 -17 3q-11 3 -19 -2.5t-8 -17.5q0 -18 15 -31q8 -7 34 -7q22 0 55 12q27 11 38 20z" />
    <glyph glyph-name="h" unicode="h" horiz-adv-x="409" 
d="M384 300q0 -4 3 -65.5t3 -101.5q0 -76 -10 -98q-6 -14 -25 -14q-30 0 -44 20q-9 12 -9 44q0 19 5 72.5t5 81.5q0 132 -96 132q-6 0 -81 -38q11 -22 29 -83q20 -70 20 -101q0 -48 -17 -85q-22 -45 -61 -45t-67 31q-26 28 -26 60q0 35 17.5 178.5t17.5 224.5q0 44 -4 79
q-9 79 -9 86q0 83 42 83q41 0 41 -111q0 -25 -2 -54.5t-2 -27.5q1 -58 7 -158q114 42 136 42q51 0 93 -65q34 -53 34 -87zM121 178q0 7 -13 50q-16 57 -19 70q-22 -121 -22 -164q0 -9 12.5 -18t25.5 -8q18 1 18 35q0 9 -1 21.5t-1 13.5z" />
    <glyph glyph-name="i" unicode="i" horiz-adv-x="217" 
d="M192 718q0 -32 -24 -56t-51 -24t-47 21.5t-20 47.5q0 27 23.5 53.5t51.5 26.5q22 0 44.5 -23t22.5 -46zM195 121q-4 -13 -12 -37q-24 -77 -74 -77q-70 0 -90 47q-9 22 -9 83q0 11 26 110q5 15 12 47q7 59 21 193q0 9 2 30t3 42t12 33q17 21 21 21q10 0 31 -15
q11 -8 11 -22q0 -5 -2.5 -17.5t-2.5 -19.5q-3 -12 -6 -42q-2 -18 0 -71v-44q0 -23 6 -42q18 -41 35 -83q22 -53 22 -93q0 -22 -6 -43zM143 715q-4 16 -21 16q-23 0 -19 -24q2 -15 16 -17q10 -2 18.5 6.5t5.5 18.5zM146 158q0 3 -17 47.5t-22 71.5q-9 -9 -9 -21q0 -22 1 -19
q-4 -21 -15.5 -46.5t-11.5 -28t-1 -11t-1 -13.5q1 -7 4 -12q10 -13 27 -13q20 0 34 15q11 12 11 30z" />
    <glyph glyph-name="j" unicode="j" horiz-adv-x="429" 
d="M387 727q0 -474 -69 -632q-22 -52 -88 -100q-69 -53 -128 -53q-36 0 -56 34q-15 24 -15 49q0 30 51 64q45 31 65 31q5 0 29.5 -4.5t30.5 -4.5q8 0 24 15.5t25 32.5q35 66 35 178q0 24 -2 68.5t-2 63.5q0 26 -6 80t-6 81q0 50 15 89q6 14 24.5 36.5t32.5 22.5q40 0 40 -51
zM231 61q-13 3 -38 3q-82 0 -82 -44q0 -7 9.5 -13.5t17.5 -6.5q19 0 50 25q21 18 43 36z" />
    <glyph glyph-name="k" unicode="k" horiz-adv-x="423" 
d="M397 640q0 -12 -49 -72l-98 -94q-84 -81 -84 -100q0 -9 101.5 -146t101.5 -146q-1 -19 -11.5 -36.5t-25.5 -17.5q-4 0 -9 2q-18 8 -50 43t-45 60l-36 74q-32 58 -60 73q2 -81 2 -172q-1 -5 0 -18q2 -15 2 -21q0 -26 -17.5 -38t-31.5 -12q-19 0 -30 19q-4 7 -4 36
q0 22 5 113.5t5 149.5q0 102 -19 213.5t-19 117.5q0 42 23.5 69.5t61.5 27.5q75 0 75 -64q0 -21 -12.5 -92.5t-12.5 -102.5q0 -17 3 -29q44 55 89 111q82 97 100 97q20 0 32.5 -13t12.5 -32zM129 654q-1 20 -24 21q-11 1 -20 -7.5t-8 -20.5q3 -28 13.5 -67t12.5 -55l18 60
q10 36 8 69z" />
    <glyph glyph-name="l" unicode="l" horiz-adv-x="262" 
d="M241 25q0 -27 -29 -27q-65 0 -125 68q-54 61 -58 116q-4 43 0 132q6 173 5 199q0 22 -10 67.5t-10 48.5q0 26 18 78q24 68 56 68q62 0 62 -165q0 -33 -17 -104q-20 -83 -24 -113q-12 -98 -12 -193q0 -24 21.5 -66t42.5 -50q80 -30 80 -59zM97 661q-13 0 -24.5 -14.5
t-11.5 -44.5q0 -47 25 -117q6 3 15 51.5t9 85.5q0 39 -13 39z" />
    <glyph glyph-name="m" unicode="m" horiz-adv-x="720" 
d="M657 537q0 -326 -14 -489q-1 -13 -14.5 -21.5t-24.5 -8.5q-25 0 -42 21q-14 18 -14 37q0 5 9.5 31.5t11.5 38.5q15 105 15 210q0 153 -12 223q-24 138 -98 138q-32 0 -64.5 -32t-32.5 -62q0 -3 17 -78q5 -23 23 -96q14 -57 14 -64q0 -62 -23 -108q-30 -57 -89 -57
q-51 0 -78 50q-20 37 -20 77q0 58 31 142.5t31 140.5q0 65 -38 65q-18 0 -38 -9q-24 -10 -29 -25q-70 -197 -70 -367q0 -92 27 -227q0 -32 -28 -49q-21 -14 -43 -14q-14 0 -34 23.5t-20 41.5q0 3 9.5 48.5t11.5 68.5l8 180q13 171 48 273q49 141 138 141q19 0 67 -22.5
t52 -35.5q54 51 72 59q10 3 58 3q183 0 183 -247zM374 396q0 12 -17 67q-19 60 -32 75q-14 -37 -29 -73q-16 -43 -16 -65q0 -60 42 -60q20 0 36 15t16 41z" />
    <glyph glyph-name="n" unicode="n" horiz-adv-x="512" 
d="M471 106q0 -23 -12 -44q-16 -27 -42 -27q-8 0 -19.5 8.5t-14.5 16.5q-7 16 -7 42q0 18 3 48q5 40 5 48q10 139 0 297q-1 26 -3 52q-5 40 -22.5 63t-51.5 39q-29 14 -44 14q-80 0 -80 -120q0 -25 30.5 -191t30.5 -218q0 -118 -96 -118q-57 0 -91 30t-34 81q0 71 34 205
q43 164 49 206q0 27 7 76q8 12 21 33q59 115 176 115q46 0 88 -57q36 -48 43 -91q16 -103 16 -166q0 -38 -5 -71v-198q0 -13 9.5 -41t9.5 -32zM183 212q0 7 -19 79q-22 85 -27 111l-9 6q-21 -133 -21 -179q0 -26 12 -47q14 -24 38 -24q12 0 19 21q7 17 7 33z" />
    <glyph glyph-name="o" unicode="o" horiz-adv-x="486" 
d="M463 324q0 -26 -13 -78q-5 -27 -11 -53q-10 -44 -25 -70q-26 -41 -81 -75.5t-94 -34.5q-5 0 -28 2.5t-31 2.5t-41.5 18t-50.5 31q-14 10 -32 51q-13 26 -30 81q-11 74 -11 215q0 125 45 224q58 129 170 129q72 0 124.5 -55t66.5 -140q10 -24 24 -71q18 -80 18 -177z
M367 480q0 1 -11 56q-8 42 -27 79q-5 9 -31 35q-31 32 -45 32h-25q0 -2 -2.5 -7t-2.5 -12t6 -19q9 -18 10.5 -21.5t3.5 -32.5q25 -12 42 -27q63 -60 82 -83zM378 324q0 19 -9 32.5t-18 27.5q-12 26 -41 71q-18 21 -51 55q-13 13 -61 40q-52 28 -67 28q-18 0 -33 -72
q-12 -57 -12 -81q0 22 8 -179q2 -60 27 -99q22 -35 57 -48q15 -6 49 -6h24q21 0 53.5 24.5t52 56.5t22.5 78q-1 -18 -1 72z" />
    <glyph glyph-name="p" unicode="p" horiz-adv-x="455" 
d="M429 627q0 -90 -79 -183q-45 -54 -146 -134q-79 -63 -79 -79q0 1 25 -47.5t25 -88.5q0 -38 -20 -62q-21 -28 -57 -28q-41 0 -59 23q-9 11 -19 93q-8 72 -8 101q0 52 24 315q3 60 7 120q12 65 66 93q25 13 68.5 24t70.5 11q56 0 118 -50q63 -53 63 -108zM342 629
q0 42 -30 68t-73 26q-78 0 -113 -66q-24 -45 -29 -134q-1 -23 -10 -103q-8 -73 -8 -90q0 -10 5 -10q42 0 132 87q84 81 107 129q4 9 11.5 45.5t7.5 47.5zM116 141q-3 17 -21 35q-12 11 -24 21q-5 -39 0 -60q2 -10 4 -20.5t11 -14.5q16 -7 28 1q8 6 2 38z" />
    <glyph glyph-name="q" unicode="q" horiz-adv-x="472" 
d="M440 55q0 -19 -15.5 -30t-32.5 -11q-5 0 -30.5 21.5t-31.5 21.5t-33.5 -14.5t-33.5 -14.5t-23 -2t-23 -2q-121 0 -173 110q-35 75 -35 193q0 99 41 240q60 207 165 207q43 0 89.5 -19.5t70.5 -52.5q34 -46 50 -202q10 -93 10 -163q0 -32 -8 -104q-7 -66 -8 -68
t-11.5 -14.5t-10.5 -19.5l21.5 -22.5t21.5 -53.5zM369 489q0 4 -1 17v17q0 15 -24 72q-29 69 -57 69q-45 0 -45 -40q0 -35 48 -79q36 -33 79 -56zM328 452q-62 32 -85 49q-56 43 -97 116q-66 -106 -66 -323q0 -85 21 -121q34 -59 78 -73q12 -4 24 -4q19 0 50.5 11.5
t42.5 13.5q-5 9 -29 38q-18 23 -18 30q0 35 40 35q13 0 54 -28q12 19 24 63q14 53 14 97q0 31 -7 53.5t-46 42.5z" />
    <glyph glyph-name="r" unicode="r" horiz-adv-x="478" 
d="M450 668q0 -38 -36 -59q-28 -16 -60 -16q-111 0 -70 1q-70 -2 -105.5 -14t-60.5 -63q-20 -41 -24 -82q-3 -31 -1 -96q1 -75 0 -105q-1 -22 4 -67q5 -48 5 -69q0 -36 -11 -61q-7 -14 -35 -14q-25 0 -33 19q-4 9 -4 19q0 33 -1.5 102l-1.5 69q0 146 1 171q4 84 32 134
q77 133 146 183.5t180 50.5q34 0 57 -41q18 -32 18 -62zM352 676q4 24 -8 35q-5 5 -33 5q-30 0 -60 -28q-21 -20 -42 -41q16 0 49.5 -3t37.5 -3q9 0 27 8q26 11 29 27z" />
    <glyph glyph-name="s" unicode="s" horiz-adv-x="541" 
d="M524 683q0 -41 -45 -73q-38 -27 -66 -27q-6 0 -80.5 27.5t-80.5 27.5q-45 0 -69 -50q-17 -35 -17 -71q0 -34 33 -74t79 -58q26 -9 73 -31q31 -18 62 -37q46 -34 52 -72q6 -36 -13 -81q-6 -14 -38 -55q-9 -12 -33 -37q-22 -19 -63 -32q-86 -29 -100 -29q-6 0 -42 -4.5
t-42 -4.5q-33 0 -75 25q-48 29 -48 64q0 65 44 84q21 9 79 9q2 0 56.5 -19t77.5 -24q37 -7 38 -7q30 0 60.5 22.5t30.5 54.5q0 23 -10 37q-2 3 -30 24q-24 18 -81 40q-96 38 -140 78q-22 19 -38 56q-14 33 -14 58q0 28 12 67q16 47 41 75q15 23 48 62q74 71 210 71
q5 0 18 -6t19 -7q92 -20 92 -83zM417 681q2 17 -37 32q-9 3 -19 3q-16 0 -68 -26q9 -11 39 -15t35 -7q10 -7 22 -7q25 0 28 20zM261 77q-103 39 -116 39q-10 0 -18 -8t-8 -18q0 -12 19 -24q16 -9 25 -9q29 0 98 20z" />
    <glyph glyph-name="t" unicode="t" horiz-adv-x="766" 
d="M741 668q0 -92 -175 -131q-24 -5 -74 -2q-42 3 -116 28q-1 -18 4 -51q6 -39 7 -55v-98q0 -6 -3 -23.5t-3 -23.5q0 -5 9.5 -107t9.5 -108q0 -28 -17 -57q-20 -34 -48 -34q-47 0 -47 54q0 3 6.5 22t10.5 44q6 44 6 72q0 85 -16 334q-2 42 -6 50q-9 17 -42 22q-29 5 -55 5
q-5 0 -25 -4.5t-25.5 -4.5t-28 -2.5t-28.5 -2.5q-21 0 -25 1q-16 6 -29.5 28t-13.5 37q0 10 22 23.5t27 13.5q13 0 39 -5.5t45 -5.5q11 0 42.5 -1.5t36.5 -1.5q11 0 107 24q13 4 57 16q101 27 119 31q59 13 112 13q66 0 91 -26q21 -21 24 -32q2 -7 2 -42zM507 693
q-27 0 -119 -25q-14 -4 -30 -20q49 -18 99 -35q63 -23 90 -23q8 0 24.5 21t16.5 40q0 42 -81 42z" />
    <glyph glyph-name="u" unicode="u" horiz-adv-x="501" 
d="M481 671q0 -19 -43.5 -233.5t-53.5 -243.5q-24 -72 -76 -122q-59 -56 -129 -56q-84 0 -123 90q-29 66 -29 162q0 44 6 126q6 87 7 126q0 21 -2 61t-2 58q0 62 3 77q8 49 43 49q26 0 41.5 -19t15.5 -46q0 -5 -11.5 -30t-12.5 -33q-21 -100 -21 -359q0 -98 10 -132
q21 -69 95 -69q77 0 113 117q25 80 25 180q0 75 -14 128q-9 13 -23 42q-6 18 -14 65t-8 66q0 106 90 106q48 0 80.5 -31t32.5 -79zM420 618q0 67 -45 67q-13 0 -23 -19.5t-10 -34.5q0 -27 21.5 -75.5t21.5 -67.5q14 19 25 63q10 40 10 67z" />
    <glyph glyph-name="v" unicode="v" horiz-adv-x="665" 
d="M642 690q0 -23 -58 -155q-67 -156 -72 -171q-41 -128 -110 -324q-8 -18 -36 -18q-19 0 -53 10q-12 4 -31 41q-33 64 -36 70q-16 23 -49 78q-16 37 -55 115q-48 82 -55 94q-29 53 -41 87q-7 24 -17.5 75.5t-10.5 62.5q0 42 18 74q22 38 61 38q52 0 86 -80q24 -57 37 -149
q5 -43 9 -86l6 -56q4 -37 14 -64q3 -8 33 -63q1 -2 31 -72q17 -39 40 -55q5 33 51 174q22 57 61 170q16 74 52 219q4 12 23.5 26t27.5 14q29 0 49 -12q25 -15 25 -43zM161 445q2 26 4 51q-1 59 -10 107q-8 39 -35 39q-26 0 -26 -45q0 -32 28 -84q19 -34 39 -68z" />
    <glyph glyph-name="w" unicode="w" horiz-adv-x="720" 
d="M680 605q0 -68 -14 -183q-18 -152 -21 -183q-7 -87 -49 -143q-49 -64 -131 -64q-41 0 -86 23q-53 26 -57 61q-54 -59 -112 -59q-108 0 -152 79q-33 60 -33 177q0 175 1 210q3 127 19 205q7 38 35 44q23 5 39 -17t16 -47q0 -53 -13 -160t-13 -160q0 -7 -1 -36t-1 -49
q0 -165 62 -165q43 0 58.5 16t15.5 57q0 28 -18 85.5t-18 84.5q0 51 28.5 87.5t77.5 36.5q64 0 96 -48q27 -41 25 -107q-1 -29 -24 -96t-23 -68q0 -26 34 -50q31 -22 59 -24q24 -1 49 38q2 2 26 50q20 39 25 164q2 37 2 175q0 178 49 178t49 -112zM361 323q0 17 -14 36.5
t-34 17.5q-36 -3 -36 -64q0 -8 45 -120q2 11 22 63q16 45 17 67z" />
    <glyph glyph-name="x" unicode="x" horiz-adv-x="645" 
d="M622 619q0 -15 -112.5 -130.5t-112.5 -140.5q0 -42 52 -100q11 -12 96 -91q52 -49 52 -70q0 -23 -28.5 -39.5t-53.5 -16.5q-20 0 -93 107q-46 67 -82 128q-25 -22 -70.5 -89.5t-72.5 -93.5q-45 -45 -93 -45q-26 0 -57 31t-31 57q0 89 89 160q71 57 172 86q-9 23 -93 171
q-74 132 -74 156q0 12 11 29t24 17q22 0 55 -61q33 -65 67 -130q40 -77 79 -125q22 25 228 241q19 0 33.5 -16t14.5 -35zM274 301q-46 -20 -91 -40q-57 -32 -57 -72q0 -16 13 -33t28 -17q27 0 63 68z" />
    <glyph glyph-name="y" unicode="y" horiz-adv-x="602" 
d="M578 708q0 -52 -146 -273q-75 -107 -149 -213q-70 -120 -87 -160q-5 -10 -19 -19t-25 -9q-13 0 -32 15q-22 18 -22 39q0 9 5 17q31 60 113 156q72 83 72 91q0 10 -19.5 37.5t-38.5 39.5q-7 4 -49 16t-63 28q-44 32 -71 89q-23 49 -23 90q0 28 22 70q28 55 70 55
q14 0 30 -7q50 -22 75 -102q18 -67 35 -133q17 -48 75 -117q30 42 87 130q16 38 46 106q9 29 17 57q20 50 48 50q21 0 35 -19.5t14 -33.5zM200 528q-8 48 -14 66q-12 40 -37 58q-4 4 -8 4q-10 0 -18.5 -17.5t-9.5 -35.5q-3 -34 43 -62q23 -13 44 -13z" />
    <glyph glyph-name="z" unicode="z" horiz-adv-x="651" 
d="M623 149q0 -104 -178 -120q-25 -2 -55 5q-42 11 -54 12q-71 9 -89 9q-78 0 -110.5 -5t-48.5 -5q-74 0 -74 64q0 53 115 184l168 172q154 165 154 212q0 7 -8 14.5t-16 7.5q-28 0 -157.5 -12t-125.5 -12q-21 0 -54 15q-42 20 -42 46q0 33 140 33q22 0 89 -3q27 -1 90 3
q67 4 65 4h26q18 1 26 1q71 0 75 -41q5 -43 -154 -254q-129 -165 -259 -331h52q2 0 34 3q28 3 35 3q2 0 78 28q14 5 67 36q35 21 94 29q40 5 81 -35q36 -36 36 -63zM515 126q0 12 -15.5 22t-30.5 10q-19 0 -63 -25q-37 -21 -48 -32q51 -16 89 -16q19 0 41 11q27 13 27 30z
" />
    <glyph glyph-name="braceleft" unicode="{" horiz-adv-x="296" 
d="M267 722q0 -57 -65 -93q-47 -21 -93 -41q-16 -9 -16 -48q0 -13 5 -31t26 -61q19 -38 19 -43q0 -15 -15 -28q-22 -20 -31 -34q16 -11 40 -36q18 -32 18 -55q0 -6 -14.5 -48.5t-14.5 -47.5q0 -24 60 -70t60 -52q0 -8 -7.5 -18.5t-14.5 -10.5q-43 0 -99.5 61t-56.5 101
q0 29 17 89q-20 15 -39 31q-23 18 -23 35q0 5 22.5 38.5t22.5 38.5q0 3 -17 24.5t-19 30.5q-5 22 -5 46q0 6 11 37q14 41 16 51q53 188 151 188q21 0 41.5 -15t20.5 -39zM218 707q2 9 -6.5 17.5t-18.5 8.5q-6 0 -9 -3q-24 -24 -49 -69q22 5 38 12q40 15 45 34z" />
    <glyph glyph-name="bar" unicode="|" horiz-adv-x="246" 
d="M219 668q0 -60 -21 -127q-29 -92 -38 -148q-5 -28 -5 -77q0 -45 5 -125t5 -96q0 -80 -43 -80q-37 0 -39 82q-1 21 -6 69q-4 45 -4 70q0 11 -2 45q-1 30 0 51q0 20 2.5 52t2.5 35q0 9 -24 44q-31 46 -31 127q0 64 27 115q33 64 93 64q31 0 56 -40q22 -35 22 -61zM150 558
q0 8 2.5 27.5t2.5 28.5q0 30 -22 31q-20 0 -25.5 -25t-9.5 -50q-2 -14 -2 -30q0 -57 25 -86l18 46q11 32 11 58z" />
    <glyph glyph-name="braceright" unicode="}" horiz-adv-x="296" 
d="M23 59q0 57 65 93q47 20 93 41q16 9 16 48q0 13 -5 30.5t-26 60.5q-19 39 -19 44q0 15 15 28q22 20 31 34q-16 11 -40 36q-18 32 -18 55q0 5 14.5 47.5t14.5 48.5q0 24 -60.5 70t-60.5 52q0 7 8 18t15 11q43 0 99.5 -61t56.5 -101q0 -30 -17 -89q20 -15 39 -31
q23 -18 23 -35q0 -5 -22.5 -38.5t-22.5 -38.5q0 -3 17 -24.5t19 -30.5q5 -22 5 -46q0 -6 -11 -38q-14 -40 -16 -50q-54 -188 -151 -188q-21 0 -40 14q-22 15 -22 40zM72 74q-3 -9 6 -18t19 -9q5 0 9 4q24 24 49 69q-22 -5 -38 -12q-40 -15 -45 -34z" />
    <glyph glyph-name="asciitilde" unicode="~" horiz-adv-x="535" 
d="M511 449q0 -38 -68 -61q-49 -17 -80 -17q-23 0 -95 22t-97 22q-46 0 -78 -26t-46 -26q-19 0 -19 21q0 25 62 60q55 31 73 31q5 0 64 -11t63 -11q3 0 61.5 30t90.5 30q28 0 50 -22q19 -21 19 -42zM444 455q-11 12 -24 12q-21 0 -55 -38q2 -2 35 -2q13 0 28 4q20 6 20 15
q0 4 -4 9z" />
    <glyph glyph-name="exclamdown" unicode="&#xa1;" horiz-adv-x="198" 
d="M26 81q0 27 25 119q12 44 24 89q3 31 11 93q7 45 6 122q-2 90 1 122q1 9 2.5 18t30.5 9q21 0 22 -7q6 -28 6 -86q0 -24 -1.5 -80.5t-1.5 -85.5q0 -30 2 -54q0 -6 7 -66q7 -52 7 -106q0 -161 -78 -161q-23 0 -43 25t-20 49zM84 734q0 48 39 48q13 0 21.5 -12.5t8.5 -21.5
q0 -21 -9 -39q-11 -24 -29 -24q-31 0 -31 49zM88 159q3 -33 24 -33q20 0 17 39q-2 42 -13 100q-1 -2 -19 -50q-11 -31 -9 -56z" />
    <glyph glyph-name="cent" unicode="&#xa2;" horiz-adv-x="807" 
d="M518 341q0 -14 -10.5 -23.5t-19.5 -9.5q-5 0 -12 2.5t-14 2.5q-5 0 -31 -6.5t-37 -7.5q-25 -2 -61 -8q7 -51 28 -96.5t42 -59.5q11 -8 25 -8q13 0 44 11q20 7 38 29q23 29 33 37q103 79 142 79q36 0 59 -21.5t23 -57.5q0 -92 -67 -138q-58 -40 -155 -40q-26 0 -113 23
q-22 3 -65 18q-90 51 -107 210q-139 -30 -145 -30q-84 0 -84 66q0 30 42 57q37 24 65 24q6 0 122 -16q3 26 9 56q-62 -14 -73 -14q-84 0 -84 66q0 30 42 57q37 24 65 24q6 0 88 -12q84 204 210 204q28 0 110.5 -10t102.5 -17q42 -14 42 -60q0 -14 -27.5 -35.5t-42.5 -21.5
q-25 0 -74.5 33t-85.5 33q-103 0 -166 -135q65 -9 71 -9t34.5 5t33.5 5q25 0 50 -7q34 -10 34 -26q0 -14 -10.5 -23.5t-19.5 -9.5q-5 0 -12 2.5t-14 2.5q-5 0 -31 -6.5t-37 -7.5q-44 -3 -131 -22q-10 -41 -12 -82q30 -4 34 -4q6 0 34.5 5t33.5 5q25 0 50 -7q34 -10 34 -26z
M291 511q-51 14 -78 -1q-17 -9 -30 -24q-6 -6 -6 -10q0 -7 18 -7q28 0 87 16q4 13 9 26zM683 162q0 27 -38 27q-25 0 -65 -39q-13 -13 -56 -63q9 0 27.5 -1t28.5 -1q25 0 64 26t39 51zM243 324q-5 4 -27 12q-28 9 -50 9q-21 0 -34 -8q-17 -9 -30 -24q-6 -6 -6 -10
q0 -7 18 -7q24 0 76 13q44 11 53 15z" />
    <glyph glyph-name="sterling" unicode="&#xa3;" horiz-adv-x="671" 
d="M653 171q0 -91 -78 -128q-49 -23 -118 -23q-59 0 -249 81q-21 -52 -45.5 -71.5t-60.5 -19.5t-63 27t-27 66q0 38 24 75q28 45 73 45q9 0 19 -2q0 55 -4 140q0 -9 0 84q0 52 -10 83q-21 6 -43 12q-22 11 -22 42q0 28 25 28q13 0 32 -10q9 14 15 63q5 45 26 67q38 39 71 36
q27 -3 48 -23.5t21 -41.5q0 -39 -32 -92q-35 -59 -74 -68q13 -75 34 -226q1 -8 4 -125q28 -17 75 -40.5t55 -23.5q35 0 74 29q35 26 71 53q45 29 95 29q34 0 51 -26q13 -18 13 -40zM220 715q-8 0 -27 -10.5t-19 -48.5q0 -18 4 -38q60 51 60 79q0 18 -18 18zM536 162
q-18 0 -56 -36q-23 -22 -45 -45q27 2 55 3q35 5 51 21q13 13 13 31q0 26 -18 26zM135 139q-10 8 -32 -6t-22 -27q0 -16 18 -16q13 0 27 12.5t14 25.5q0 7 -5 11z" />
    <glyph glyph-name="currency" unicode="&#xa4;" horiz-adv-x="512" 
d="M502 360q-4 -58 -70 -58q-77 0 -121 8q-9 -30 -9 -67q0 -30 7 -81.5t7 -70.5q0 -80 -42 -80q-37 0 -39 82q-1 21 -6 70q-4 44 -4 69q0 82 -3 96q-9 7 -40 7q-8 0 -43 -4t-78 -4q-40 0 -40 34q0 43 129 42q4 0 28.5 -2t30.5 -2q19 0 19 16q0 10 -24 44q-31 46 -31 127
q0 64 27 115q33 64 93 64q31 0 56 -40q22 -35 22 -61q0 -62 -19 -127q-32 -109 -40 -148q28 -6 135 -9q37 -1 55 -20zM302 554q0 8 2.5 27.5t2.5 28.5q0 31 -22 31q-21 0 -28 -25q-3 -25 -7 -50q-2 -14 -2 -29q0 -58 25 -87q9 23 17 46q12 32 12 58z" />
    <glyph glyph-name="yen" unicode="&#xa5;" horiz-adv-x="512" 
d="M487 685q0 -54 -49 -103q-52 -45 -104 -91.5t-53 -125.5q9 -9 26 -9q4 0 12.5 2.5t13.5 2.5q23 0 32 -9.5t9 -23.5q0 -28 -23 -28q-6 0 -16.5 3.5t-12.5 3.5q-8 0 -16 -4.5t-12 -5.5q-2 -14 -3 -27t4.5 -17.5t23.5 -1.5q21 4 29 0q15 -5 17 -30q2 -24 -55 -24
q-5 0 -8 -43q-1 -10 1.5 -23.5t2.5 -29.5q0 -48 -1 -51q-5 -25 -34 -25q-33 0 -39 1q-18 5 -18 28q0 11 4 85q1 17 3 47h-18q-13 -1 -17 -1q-29 0 -29 23q0 21 16 28q6 3 33 5q4 4 9 19.5t5 22.5q0 9 -4 20q-6 0 -19.5 -2.5t-19.5 -2.5q-26 0 -33 9t-7 18q0 14 12 27
q9 10 32 9q27 -2 23 -3q-1 58 -53 127q-31 42 -93 101q-51 47 -51 54q0 10 9 22t19 12q28 0 107.5 -95t100.5 -95q12 0 44 48q30 45 35 63q3 29 12 86q5 20 37.5 42.5t54.5 22.5q15 0 38 -22.5t23 -38.5zM444 668q0 10 -10.5 17t-21.5 7q-16 0 -29 -39q-9 -28 -12 -56
q73 45 73 71z" />
    <glyph glyph-name="brokenbar" unicode="&#xa6;" horiz-adv-x="246" 
d="M219 668q0 -60 -21 -127q-29 -92 -38 -148q-5 -28 -5 -77q0 -45 5 -125t5 -96q0 -80 -43 -80q-37 0 -39 82q-1 21 -6 69q-4 45 -4 70q0 11 -2 45q-1 30 0 51q0 20 2.5 52t2.5 35q0 9 -24 44q-31 46 -31 127q0 64 27 115q33 64 93 64q31 0 56 -40q22 -35 22 -61zM150 558
q0 8 2.5 27.5t2.5 28.5q0 30 -22 31q-20 0 -25.5 -25t-9.5 -50q-2 -14 -2 -30q0 -57 25 -86l18 46q11 32 11 58z" />
    <glyph glyph-name="section" unicode="&#xa7;" horiz-adv-x="763" 
d="M724 324q0 -20 -16 -25q-143 -39 -174 -39q-7 0 -15.5 11t-8.5 20q0 12 27 47q37 48 51 75q29 51 32 101q-7 -3 -11 -20q-5 -21 -11 -29q-12 -18 -42.5 -33.5t-47.5 -15.5q-5 0 -30 35t-25 46q0 28 63 57q52 24 70 24q6 0 32 -7.5t32 -7.5q5 0 10 2.5t11 2.5q34 0 34 -28
q0 -13 -114 -214h25q5 0 37.5 9.5t39.5 9.5q9 0 20 -6.5t11 -14.5zM449 623l-11 -33q-17 7 -42 30q-16 14 -44 14q-24 0 -30 -20t-12 -39q-11 -21 -46 -21q-38 0 -38 43q0 34 82 184q40 5 67 -24q16 -18 38 -67.5t36 -66.5zM718 197q0 -10 -9.5 -19.5t-19.5 -9.5
q-18 0 -18 24q0 15 11 20.5t23 0.5q13 -4 13 -16zM717 102q0 -26 -18 -26q-19 0 -19 26t19 26q18 0 18 -26zM491 334q0 -53 -73 -84q-54 -23 -97 -23q-27 0 -41 25q-11 19 -15 96q-1 21 -8 68q-7 44 -7 48q0 13 28.5 32.5t39.5 19.5q38 0 66 -18.5t28 -52.5q0 -25 -16 -54
q27 -8 54 -15q41 -14 41 -42zM633 185q-1 0 -10.5 -2.5t-18.5 -2.5l2 -21.5t2 -37.5q0 -51 -17 -51q-20 0 -24 45q1 -6 1 51h-44q0 -100 -35 -100q-4 0 -23 14q-23 17 -42 24q0 -11 -5 -47h-27q0 1 -5 10t-5 15q0 12 9 48q10 40 15 40q12 0 30 -20q20 -23 51 -28q0 31 -5 71
q18 0 66.5 12t51.5 12q15 0 18 -1q14 -6 15 -31zM240 390q0 -59 -47 -114q-49 -59 -109 -59q-31 0 -43 99q-4 61 -9 121q-7 18 -19 50q23 15 85 15q142 0 142 -112zM373 108q0 -29 -19.5 -50t-42.5 -21q-57 0 -57 62q0 25 22.5 48t51.5 23q20 0 34 -21q11 -19 11 -41z
M247 173q-1 -16 -32 -20t-37 -32q20 0 57 -8q-2 -27 -20.5 -32.5t-36.5 -9.5q2 -18 0 -52q-2 0 -7 -2.5t-11 -2.5q-20 0 -19 22v147q12 -4 51 0q34 3 55 -10zM107 142q2 -10 -7 -18t-20 -8q-12 0 -19 11t-1 22q7 12 24 12q20 -1 23 -19zM103 64q2 -11 -4.5 -21.5t-17.5 -9.5
q-17 0 -21 23q-2 16 6 23q4 5 11 5q21 0 26 -20zM367 691q0 8 -12 20l-18 18q-14 -40 -14 -39q0 -9 8 -13q10 -4 22 0q14 3 14 14zM562 506q-6 0 -17 2t-16 2q-11 0 -19 -10t-4 -20q2 -8 16 -11q28 -8 40 37zM368 454q-16 15 -38 15q-9 0 -16 -7.5t-7 -16.5q0 -21 30 -62
q36 26 31 71zM444 335q-22 10 -38 10q-10 0 -33 -11q7 -25 5 -50q66 14 66 51zM335 315q0 12 -23 25v-25q-1 -13 17 -31q0 5 3 15t3 16zM192 399q3 26 -5 37q-15 20 -41 14q-6 -1 -6 -5q0 -13 52 -46zM150 355q0 15 -15 37q-18 28 -40 28q-5 0 -11 -2q0 -55 10 -124
q17 -1 36.5 21t19.5 40zM334 91q15 23 0 36q-4 3 -8 3q-10 0 -19 -11t-10 -22q-2 -24 14 -24q12 0 23 18z" />
    <glyph glyph-name="copyright" unicode="&#xa9;" horiz-adv-x="1216" 
d="M829 672q0 -14 -27.5 -35.5t-42.5 -21.5q-25 0 -74.5 33t-85.5 33q-103 0 -164 -133q-49 -107 -48 -221q1 -57 25 -118q23 -57 48 -74q11 -8 25 -8q13 0 44 11q20 8 38 29q23 29 33 37q103 79 142 79q36 0 59 -21.5t23 -57.5q0 -92 -67 -138q-58 -40 -155 -40
q-26 0 -113 23q-22 3 -65 18q-58 33 -87 117q-24 67 -24 149q0 124 69 262q81 164 192 164q28 0 110.5 -10t102.5 -17q42 -14 42 -60zM739 162q0 27 -37 27q-26 0 -65 -39q-14 -13 -56 -63q9 0 27.5 -1t28.5 -1q25 0 63.5 26t38.5 51zM366 85q3 -7 1 -18l-4 -16
q-3 -32 -26 -42q-12 -5 -56 -8q-26 -2 -70 30q-38 30 -74 74q-46 56 -59 112q-27 108 -27 142q0 81 35 165q40 99 115 162q11 13 23.5 26t27.5 12q36 -4 41 -30q2 -15 -11 -33q-30 -35 -61 -71q-41 -48 -49 -77q-9 -17 -20.5 -51.5t-11.5 -81.5q0 -105 22 -149q5 -10 46 -28
q35 -15 62 -22.5t54 -31.5q31 -29 42 -64zM290 88q0 15 -48 33q-59 23 -71 34q7 -31 37 -59.5t53 -29.5q29 0 29 22zM861 694q-2 8 0 19q1 7 3 15q3 32 27 42q11 5 55 9q27 2 70 -31q39 -29 74 -73q47 -58 60 -112q26 -108 26 -142q0 -81 -34 -166q-41 -99 -115 -162
q-12 -12 -24.5 -25t-27.5 -12q-36 2 -40 30q-3 15 10 33q31 35 61 70q41 48 49 77q9 17 23 51q9 35 9 82q0 106 -22 150q-5 10 -46 28q-34 15 -61 22t-54 32q-32 28 -43 63zM937 692q0 -15 49 -34q58 -23 71 -34q-8 32 -38 60.5t-53 28.5q-29 0 -29 -21z" />
    <glyph glyph-name="registered" unicode="&#xae;" horiz-adv-x="1216" 
d="M366 85q3 -7 1 -18l-4 -16q-3 -32 -26 -42q-12 -5 -56 -8q-26 -2 -70 30q-38 30 -74 74q-46 56 -59 112q-27 108 -27 142q0 81 35 165q40 99 115 162q11 13 23.5 26t27.5 12q36 -4 41 -30q2 -15 -11 -33q-30 -35 -61 -71q-41 -48 -49 -77q-9 -17 -20.5 -51.5t-11.5 -81.5
q0 -105 22 -149q5 -10 46 -28q35 -15 62 -22.5t54 -31.5q31 -29 42 -64zM290 88q0 15 -48 33q-59 23 -71 34q7 -31 37 -59.5t53 -29.5q29 0 29 22zM861 694q-2 8 0 19q1 7 3 15q3 32 27 42q11 5 55 9q27 2 70 -31q39 -29 74 -73q47 -58 60 -112q26 -108 26 -142
q0 -81 -34 -166q-41 -99 -115 -162q-12 -12 -24.5 -25t-27.5 -12q-36 2 -40 30q-3 15 10 33q31 35 61 70q41 48 49 77q9 17 23 51q9 35 9 82q0 106 -22 150q-5 10 -46 28q-34 15 -61 22t-54 32q-32 28 -43 63zM937 692q0 -15 49 -34q58 -23 71 -34q-8 32 -38 60.5t-53 28.5
q-29 0 -29 -21zM841 603q0 -75 -52 -140q-35 -44 -114 -103q-16 -13 -52 -31t-52 -29q70 -34 141 -68q95 -56 95 -112q0 -42 -24 -67.5t-65 -25.5q-38 0 -83 37q-20 16 -76 76q-46 48 -74 64q0 -149 -3 -170q-2 -16 -22 -18q19 2 -41 2q-27 0 -27 64q0 26 3 72.5t3 72.5
q0 52 -2 156.5t-2 156.5q0 100 24 157q13 30 97 59q75 26 117 26q89 0 146 -44q63 -48 63 -135zM781 610q0 49 -47 79q-42 27 -94 27q-158 0 -158 -216q0 -26 3 -78t3 -77q4 -1 15 -1q19 0 66 32q39 26 66 49q22 15 56.5 38.5t60.5 63.5q29 44 29 83zM707 147q0 9 -23 36
q-11 13 -29.5 19.5t-35.5 12.5q-43 19 -48 15q2 -1 28 -41q23 -36 48 -47q34 -15 41 -15q19 0 19 20z" />
    <glyph glyph-name="degree" unicode="&#xb0;" horiz-adv-x="195" 
d="M169 663q0 -33 -24 -57t-50 -24q-27 0 -47.5 22t-20.5 47q0 28 24 54.5t51 26.5q23 0 45 -23.5t22 -45.5zM121 660q-4 15 -22 15q-22 0 -19 -23q2 -15 16 -17q10 -2 18.5 6.5t6.5 18.5z" />
    <glyph glyph-name="plusminus" unicode="&#xb1;" 
d="M494 110q0 -14 -11 -23.5t-20 -9.5q-5 0 -12 2.5t-13 2.5q-5 0 -31.5 -6.5t-37.5 -7.5q-49 -3 -161 -28q-107 -24 -118 -24q-84 0 -84 66q0 30 42 57q37 24 65 24q6 0 114 -15t114 -15t34.5 5t34.5 5q24 0 49 -7q35 -10 35 -26zM218 93q-4 4 -27 12q-27 9 -50 9
q-20 0 -34 -8q-17 -9 -30 -24q-5 -6 -5 -10q0 -7 18 -7q24 0 75 13q44 10 53 15zM500 453q0 -14 -11 -23.5t-20 -9.5q-5 0 -12 2.5t-13 2.5q-5 0 -31.5 -6.5t-37.5 -7.5q-14 -1 -33 -4q-3 -28 -3 -31q0 -6 5 -34.5t5 -34.5q0 -24 -7 -49q-10 -35 -26 -35q-14 0 -23.5 11
t-9.5 20q0 5 2.5 12t2.5 13q0 5 -6.5 31.5t-7.5 37.5q-1 19 -6 46q-175 -35 -172 -35q-84 0 -84 66q0 30 42 57q37 24 65 24q14 0 142 -18q-3 75 -3 144q0 28 9 40.5t34 14.5q18 2 23 -24q1 -24 3 -48q6 -50 -6 -133q36 4 95 4q24 0 49 -7q35 -10 35 -26zM224 436
q-4 4 -27 12q-27 9 -50 9q-20 0 -34 -8q-17 -9 -30 -24q-5 -6 -5 -10q0 -7 18 -7q24 0 75 13q44 10 53 15z" />
    <glyph glyph-name="paragraph" unicode="&#xb6;" horiz-adv-x="590" 
d="M564 683q0 -57 -55 -122q-27 -32 -122 -118q-86 -78 -124 -129q-46 -63 -144 -218q-11 -16 -28 -31q-20 -17 -32 -17q-16 0 -26.5 15t-10.5 32q0 29 20 52q89 95 129 150q29 40 57 81q24 33 59 98q24 47 48 93l54 122q35 70 76 70q30 0 61 -20q38 -24 38 -58zM489 643
q0 19 -19 19q-9 0 -26.5 -14.5t-23.5 -26.5q-10 -19 -25 -66t-23 -63q30 32 61 64q56 63 56 87z" />
    <glyph glyph-name="questiondown" unicode="&#xbf;" horiz-adv-x="420" 
d="M8 173q0 41 20 76q12 19 52 66q44 50 72 93q13 20 28 81q14 57 18 97q1 16 21 16q11 0 23.5 -19t12.5 -28q0 -42 -20 -108q-19 -62 -38 -91q-11 -15 -49 -50q-43 -39 -58.5 -57.5t-15.5 -63.5q0 -27 11 -51q14 -30 39 -30q29 0 62.5 23.5t42.5 48.5l24 82q23 62 63 62
q32 0 60 -40q23 -35 23 -58q0 -56 -80.5 -120t-147.5 -70q-65 -6 -114 33.5t-49 107.5zM179 730q0 18 12.5 31t25.5 13q16 0 26 -17q8 -13 8 -23q0 -18 -10 -33t-26 -15q-13 0 -25 20q-11 17 -11 24zM255 118q5 5 48 32q30 19 30 38q0 5 -2 11q-4 12 -12.5 26t-13.5 14
q-3 0 -4 -3q-18 -56 -23 -69q-12 -32 -23 -49z" />
    <glyph glyph-name="endash" unicode="&#x2013;" 
d="M500 453q0 -14 -11 -23.5t-20 -9.5q-5 0 -12 2.5t-13 2.5q-5 0 -31.5 -6.5t-37.5 -7.5q-49 -3 -161 -28q-107 -24 -118 -24q-84 0 -84 66q0 30 42 57q37 24 65 24q6 0 114 -15t114 -15t34.5 5t34.5 5q24 0 49 -7q35 -10 35 -26zM224 436q-4 4 -27 12q-27 9 -50 9
q-20 0 -34 -8q-17 -9 -30 -24q-5 -6 -5 -10q0 -7 18 -7q24 0 75 13q44 10 53 15z" />
    <glyph glyph-name="emdash" unicode="&#x2014;" horiz-adv-x="602" 
d="M577 405q0 -23 -84 -42q-116 -27 -124 -31q-112 -47 -243 -47q-31 0 -66 23q-41 26 -41 61q0 44 70 71q54 21 100 21q7 0 122 -18.5t121 -18.5q5 0 43 5t45 5q18 0 37.5 -7.5t19.5 -21.5zM328 381q-10 1 -58 16q-42 13 -69 13q-33 0 -53.5 -15t-20.5 -32q0 -16 36 -16
q18 0 46 4l28 4q7 0 44.5 12t46.5 14z" />
    <glyph glyph-name="afii00208" unicode="&#x2015;" horiz-adv-x="602" 
d="M577 405q0 -23 -84 -42q-116 -27 -124 -31q-112 -47 -243 -47q-31 0 -66 23q-41 26 -41 61q0 44 70 71q54 21 100 21q7 0 122 -18.5t121 -18.5q5 0 43 5t45 5q18 0 37.5 -7.5t19.5 -21.5zM328 381q-10 1 -58 16q-42 13 -69 13q-33 0 -53.5 -15t-20.5 -32q0 -16 36 -16
q18 0 46 4l28 4q7 0 44.5 12t46.5 14z" />
    <glyph glyph-name="quoteleft" unicode="&#x2018;" horiz-adv-x="233" 
d="M202 735q0 -14 -29 -33q-12 -7 -35 -12q22 -5 36 -24.5t14 -43.5q0 -26 -29 -52t-49 -26q-36 0 -64 25t-28 67q0 55 58 95q51 35 98 35q11 0 19.5 -10.5t8.5 -20.5zM127 627q-3 22 -27 22q-15 0 -15 -15q0 -13 8.5 -25t17.5 -8q18 7 16 26z" />
    <glyph glyph-name="quoteright" unicode="&#x2019;" horiz-adv-x="244" 
d="M163 576q-24 0 -24 15q0 6 5.5 21.5t6.5 23.5q-8 0 -25.5 -4t-21.5 -4q-27 0 -52 15q-28 17 -28 42q0 29 26.5 53t56.5 24q37 0 70.5 -32t33.5 -72q0 -23 -13 -50q-16 -32 -35 -32zM128 689q0 9 -8 16.5t-16 7.5q-24 0 -24 -21q0 -18 25 -18q23 0 23 15z" />
    <glyph glyph-name="quotedblleft" unicode="&#x201c;" horiz-adv-x="440" 
d="M202 735q0 -14 -29 -33q-12 -7 -35 -12q22 -5 36 -24.5t14 -43.5q0 -26 -29 -52t-49 -26q-36 0 -64 25t-28 67q0 55 58 95q51 35 98 35q11 0 19.5 -10.5t8.5 -20.5zM127 627q-3 22 -27 22q-15 0 -15 -15q0 -13 8.5 -25t17.5 -8q18 7 16 26zM421 726q0 -14 -29 -33
q-12 -7 -35 -12q22 -5 36 -24.5t14 -43.5q0 -26 -29 -52t-49 -26q-36 0 -64 25t-28 67q0 55 58 95q51 35 98 35q11 0 19.5 -10.5t8.5 -20.5zM346 618q-3 22 -27 22q-15 0 -15 -15q0 -13 8.5 -25t17.5 -8q18 7 16 26z" />
    <glyph glyph-name="quotedblright" unicode="&#x201d;" horiz-adv-x="469" 
d="M163 576q-24 0 -24 15q0 6 5.5 21.5t6.5 23.5q-8 0 -25.5 -4t-21.5 -4q-27 0 -52 15q-28 17 -28 42q0 29 26.5 53t56.5 24q37 0 70.5 -32t33.5 -72q0 -23 -13 -50q-16 -32 -35 -32zM128 689q0 9 -8 16.5t-16 7.5q-24 0 -24 -21q0 -18 25 -18q23 0 23 15zM385 576
q-24 0 -24 15q0 6 5.5 21.5t6.5 23.5q-8 0 -25.5 -4t-21.5 -4q-27 0 -52 15q-28 17 -28 42q0 29 26.5 53t56.5 24q37 0 70.5 -32t33.5 -72q0 -23 -13 -50q-16 -32 -35 -32zM350 689q0 9 -8 16.5t-16 7.5q-24 0 -24 -21q0 -18 25 -18q23 0 23 15z" />
    <glyph glyph-name="bullet" unicode="&#x2022;" horiz-adv-x="195" 
d="M166 387q0 -33 -24 -57t-50 -24q-27 0 -47.5 22t-20.5 47q0 28 24 54.5t51 26.5q23 0 45 -23.5t22 -45.5zM118 384q-4 15 -22 15q-22 0 -19 -23q2 -15 16 -17q10 -2 18.5 6.5t6.5 18.5z" />
    <glyph glyph-name="ellipsis" unicode="&#x2026;" 
d="M169 102q0 -33 -24 -57t-50 -24q-27 0 -47.5 22t-20.5 47q0 28 24 54.5t51 26.5q23 0 45 -23.5t22 -45.5zM121 99q-4 15 -22 15q-22 0 -19 -23q2 -15 16 -17q10 -2 18.5 6.5t6.5 18.5zM338 105q0 -33 -24 -57t-50 -24q-27 0 -47.5 22t-20.5 47q0 28 24 54.5t51 26.5
q23 0 45 -23.5t22 -45.5zM290 102q-4 15 -22 15q-22 0 -19 -23q2 -15 16 -17q10 -2 18.5 6.5t6.5 18.5zM508 109q0 -33 -24 -57t-50 -24q-27 0 -47.5 22t-20.5 47q0 28 24 54.5t51 26.5q23 0 45 -23.5t22 -45.5zM460 106q-4 15 -22 15q-22 0 -19 -23q2 -15 16 -17
q10 -2 18.5 6.5t6.5 18.5z" />
    </font>
</defs>
</svg>
